<svg width="46" height="69" viewBox="0 0 46 69" fill="none" xmlns="http://www.w3.org/2000/svg">
<path d="M17.8088 0.513973C11.2262 2.01981 6.15715 5.93499 2.81301 12.0487C1.29935 14.7592 0.630524 17.018 0.137703 20.7223C-0.460721 25.3905 0.876934 30.7211 4.43228 37.8287C7.178 43.2798 12.9862 52.345 16.788 57.0733C17.3864 57.7961 17.7736 58.3985 17.7032 58.4587C17.668 58.4888 16.26 58.6996 14.6055 58.8803C11.2262 59.2719 8.30444 60.3561 7.38921 61.5306C6.54437 62.6449 6.57957 64.7832 7.45961 65.8072C9.39569 68.066 13.6551 68.9695 22.5258 68.9996C33.8607 69.0297 38.5425 67.4034 38.5425 63.4882C38.5425 61.1391 35.7968 59.5429 30.5518 58.8803C29.0381 58.6996 27.7357 58.4888 27.7005 58.4587C27.63 58.4286 28.5805 56.983 29.8125 55.2663C37.9793 44.093 43.0483 34.7568 44.6676 27.86C47.4133 16.2952 40.2674 4.1581 28.6861 0.815142C25.4124 -0.148598 21.153 -0.269068 17.8088 0.513973ZM26.8908 3.0739C30.2702 3.82682 32.5935 5.03149 35.5504 7.59142C38.6833 10.2417 40.7602 13.3738 41.9218 17.0782C42.8723 20.0899 42.8019 25.8422 41.781 29.0647C39.5633 36.0518 33.8959 45.7193 25.9756 56.0795C24.2859 58.3081 22.7722 60.1452 22.6666 60.1452C22.3498 60.1452 17.9848 54.4532 14.7111 49.7851C9.07888 41.7439 5.20671 34.4857 3.51704 28.9744C-0.42552 15.994 9.07888 2.7125 22.3498 2.65226C23.7931 2.62215 25.8348 2.83297 26.8908 3.0739ZM20.625 62.0125C22.2442 64.0303 23.0539 64.0604 24.4619 62.1028C25.3772 60.8681 25.9756 60.8078 30.4814 61.5306C38.4721 62.8256 37.6977 65.1446 28.9325 66.1686C18.4777 67.3432 5.87554 65.0543 10.1349 62.7353C11.4022 62.0125 15.6616 61.1993 18.5481 61.0789C19.6393 61.0488 19.9561 61.1993 20.625 62.0125Z" fill="#5B4CE2"/>
<path d="M16.3655 17.018C10.3461 19.0358 10.3813 19.0057 10.3813 19.9092C10.3813 20.8127 10.7333 21.0536 13.479 21.927L15.6615 22.6498V25.5711C15.6615 28.8237 15.8727 29.1851 18.548 30.3597C21.3993 31.6246 24.321 31.4138 27.3836 29.7272L29.038 28.8237V25.6916C29.038 22.5293 29.1788 22.198 30.4813 22.198C31.0093 22.198 30.8333 24.3665 30.2349 24.9387C29.7421 25.3904 29.7421 25.5711 30.1645 26.324C30.5517 27.0167 30.8685 27.1673 31.8541 27.1673C32.7694 27.1673 33.1566 26.9866 33.5086 26.4445C33.7902 25.9626 33.8254 25.5109 33.579 25.1796C33.051 24.3062 33.1918 21.415 33.7902 20.9934C34.4239 20.5416 34.4943 19.3671 33.8958 18.9755C33.1566 18.4937 22.913 15.2712 22.1385 15.3013C21.7865 15.3013 19.1816 16.0843 16.3655 17.018ZM28.334 19.8188C28.334 19.9092 26.9611 20.4212 25.2715 20.9633L22.2089 21.8969L19.2872 20.9633C17.668 20.4212 16.3655 19.9092 16.3655 19.8188C16.3655 19.6983 17.668 19.2165 19.2872 18.7045L22.1737 17.801L25.2363 18.7045C26.9611 19.2165 28.334 19.7285 28.334 19.8188ZM20.8009 24.246C22.2089 24.6977 22.385 24.6676 24.2506 24.0653L26.2219 23.4328V25.4808V27.5588L24.8139 28.0407C22.9482 28.6732 21.4697 28.643 19.6392 27.9202L18.1256 27.348V25.3302C18.1256 23.5533 18.196 23.3726 18.7592 23.5533C19.076 23.6738 20.0265 23.9749 20.8009 24.246Z" fill="#5B4CE2"/>
</svg>
