<svg width="24" height="22" viewBox="0 0 24 22" fill="none" xmlns="http://www.w3.org/2000/svg">
<path opacity="0.05" d="M24 15.3166C23.1496 17.1959 22.0932 18.9363 20.8578 20.4931V11.9317L11.1799 7.48196C3.92648 9.18802 2.78207 2.33271 0.747922 0.136995C0.660869 0.0437153 0.545968 -0.00535856 0.428255 0.000464922C0.310541 0.0062884 0.199559 0.0665438 0.119489 0.168092C0.0795671 0.218253 0.048483 0.277197 0.0280283 0.34153C0.00757351 0.405863 -0.0018515 0.474316 0.000300446 0.542945C0.00245239 0.611574 0.0161365 0.679017 0.0405648 0.741408C0.0649931 0.803798 0.0996842 0.859899 0.142639 0.906473C1.82949 2.76409 3.26497 10.2334 10.7698 8.4613L20.4477 12.911V21.4607C21.8918 19.6378 23.0898 17.5657 24 15.3166Z" fill="black"/>
</svg>
