<svg width="90" height="77" viewBox="0 0 90 77" fill="none" xmlns="http://www.w3.org/2000/svg">
<g filter="url(#filter0_f_147_1020)">
<path d="M42.2227 3.91004C35.6485 5.41395 30.586 9.3241 27.2461 15.43C25.7344 18.137 25.0664 20.3929 24.5742 24.0925C23.9766 28.7546 25.3125 34.0784 28.8633 41.1768C31.6055 46.621 37.4063 55.6745 41.2031 60.3968C41.8008 61.1186 42.1875 61.7202 42.1172 61.7804C42.082 61.8104 40.6758 62.021 39.0235 62.2014C35.6485 62.5925 32.7305 63.6753 31.8164 64.8483C30.9727 65.9612 31.0078 68.0968 31.8867 69.1194C33.8203 71.3753 38.0742 72.2776 46.9336 72.3077C58.2539 72.3378 62.9297 70.7136 62.9297 66.8034C62.9297 64.4573 60.1875 62.8632 54.9492 62.2014C53.4375 62.021 52.1367 61.8104 52.1016 61.7804C52.0313 61.7503 52.9805 60.3065 54.211 58.5921C62.3672 47.4331 67.4297 38.1089 69.0469 31.221C71.7891 19.671 64.6524 7.54949 53.086 4.21082C49.8164 3.24832 45.5625 3.12801 42.2227 3.91004ZM51.293 6.46668C54.668 7.21864 56.9883 8.42176 59.9414 10.9784C63.0703 13.6253 65.1446 16.7534 66.3047 20.453C67.2539 23.4608 67.1836 29.2057 66.1641 32.4241C63.9492 39.4022 58.2891 49.0573 50.3789 59.4042C48.6914 61.63 47.1797 63.4647 47.0742 63.4647C46.7578 63.4647 42.3985 57.78 39.1289 53.1179C33.5039 45.087 29.6367 37.8382 27.9492 32.3339C24.0117 19.3702 33.5039 6.10574 46.7578 6.04559C48.1992 6.01551 50.2383 6.22606 51.293 6.46668ZM45.0352 65.3296C46.6524 67.3448 47.461 67.3749 48.8672 65.4198C49.7813 64.1866 50.3789 64.1264 54.8789 64.8483C62.8594 66.1417 62.086 68.4577 53.332 69.4804C42.8906 70.6534 30.3047 68.3675 34.5586 66.0514C35.8242 65.3296 40.0781 64.5175 42.961 64.3971C44.0508 64.3671 44.3672 64.5175 45.0352 65.3296Z" fill="#5B4CE2"/>
<path d="M40.7813 20.3928C34.7695 22.4081 34.8047 22.378 34.8047 23.2803C34.8047 24.1827 35.1563 24.4233 37.8984 25.2956L40.0781 26.0174V28.935C40.0781 32.1834 40.2891 32.5444 42.9609 33.7174C45.8086 34.9807 48.7266 34.7702 51.7852 33.0858L53.4375 32.1834V29.0553C53.4375 25.8971 53.5781 25.5663 54.8789 25.5663C55.4063 25.5663 55.2305 27.7319 54.6328 28.3034C54.1406 28.7545 54.1406 28.935 54.5625 29.687C54.9492 30.3788 55.2656 30.5292 56.25 30.5292C57.1641 30.5292 57.5508 30.3487 57.9023 29.8073C58.1836 29.326 58.2188 28.8749 57.9727 28.544C57.4453 27.6717 57.5859 24.7842 58.1836 24.3631C58.8164 23.912 58.8867 22.7389 58.2891 22.3479C57.5508 21.8667 47.3203 18.6483 46.5469 18.6784C46.1953 18.6784 43.5938 19.4604 40.7813 20.3928ZM52.7344 23.1901C52.7344 23.2803 51.3633 23.7917 49.6758 24.3331L46.6172 25.2655L43.6992 24.3331C42.082 23.7917 40.7813 23.2803 40.7813 23.1901C40.7813 23.0698 42.082 22.5885 43.6992 22.0772L46.582 21.1749L49.6406 22.0772C51.3633 22.5885 52.7344 23.0999 52.7344 23.1901ZM45.2109 27.6116C46.6172 28.0627 46.793 28.0327 48.6563 27.4311L50.625 26.7995V28.8448V30.9202L49.2188 31.4014C47.3555 32.0331 45.8789 32.003 44.0508 31.2811L42.5391 30.7096V28.6944C42.5391 26.9198 42.6094 26.7393 43.1719 26.9198C43.4883 27.0401 44.4375 27.3409 45.2109 27.6116Z" fill="#5B4CE2"/>
</g>
<defs>
<filter id="filter0_f_147_1020" x="-4" y="-4" width="98" height="85" filterUnits="userSpaceOnUse" color-interpolation-filters="sRGB">
<feFlood flood-opacity="0" result="BackgroundImageFix"/>
<feBlend mode="normal" in="SourceGraphic" in2="BackgroundImageFix" result="shape"/>
<feGaussianBlur stdDeviation="2" result="effect1_foregroundBlur_147_1020"/>
</filter>
</defs>
</svg>
