<svg width="30" height="35" viewBox="0 0 30 35" fill="none" xmlns="http://www.w3.org/2000/svg">
<path d="M1.875 6.01562C1.875 5.5805 2.02316 5.1632 2.28688 4.85553C2.5506 4.54785 2.90829 4.375 3.28125 4.375H26.7188C27.0917 4.375 27.4494 4.54785 27.7131 4.85553C27.9768 5.1632 28.125 5.5805 28.125 6.01562C28.125 6.45075 27.9768 6.86805 27.7131 7.17572C27.4494 7.4834 27.0917 7.65625 26.7188 7.65625H3.28125C2.90829 7.65625 2.5506 7.4834 2.28688 7.17572C2.02316 6.86805 1.875 6.45075 1.875 6.01562ZM1.875 16.9531C1.875 16.518 2.02316 16.1007 2.28688 15.793C2.5506 15.4854 2.90829 15.3125 3.28125 15.3125H26.7188C27.0917 15.3125 27.4494 15.4854 27.7131 15.793C27.9768 16.1007 28.125 16.518 28.125 16.9531C28.125 17.3882 27.9768 17.8055 27.7131 18.1132C27.4494 18.4209 27.0917 18.5938 26.7188 18.5938H3.28125C2.90829 18.5938 2.5506 18.4209 2.28688 18.1132C2.02316 17.8055 1.875 17.3882 1.875 16.9531ZM3.28125 26.25H26.7188C27.0917 26.25 27.4494 26.4229 27.7131 26.7305C27.9768 27.0382 28.125 27.4555 28.125 27.8906C28.125 28.3257 27.9768 28.743 27.7131 29.0507C27.4494 29.3584 27.0917 29.5312 26.7188 29.5312H3.28125C2.90829 29.5312 2.5506 29.3584 2.28688 29.0507C2.02316 28.743 1.875 28.3257 1.875 27.8906C1.875 27.4555 2.02316 27.0382 2.28688 26.7305C2.5506 26.4229 2.90829 26.25 3.28125 26.25Z" fill="#5B4CE2"/>
</svg>
