<svg width="54" height="54" viewBox="0 0 54 54" fill="none" xmlns="http://www.w3.org/2000/svg">
<path d="M0.000113419 0.000346344V2.40642L28.6044 14.3288L26.5584 15.8081L0 4.73688V10.2202L21.7884 19.2641L10.1211 27.7162L9.67077 28.0445L9.6744 28.6037L9.6921 30.8836L35.034 41.107L35.0233 43.4266L9.71321 33.2138L9.74158 36.7312L9.75588 38.2536L9.82317 38.2282V38.2968L35.0018 48.7728L34.9772 54L53.2973 50.3746L35.0694 33.4918L35.048 38.6106L20.0331 32.3627L30.3633 24.7761L30.8104 24.448L30.8032 23.8853L30.7927 23.0014L30.8175 23.0121L30.6863 12.7924L0.000113419 0V0.000346344ZM28.5901 16.9878L28.6753 23.3548L17.7209 31.4032L11.9867 29.0147L28.5901 16.9878Z" fill="#FFC107"/>
</svg>
