<svg width="17" height="18" viewBox="0 0 17 18" fill="none" xmlns="http://www.w3.org/2000/svg">
<path d="M8.33088 0C6.68319 0 5.0725 0.527839 3.70249 1.51677C2.33249 2.5057 1.2647 3.9113 0.634154 5.55583C0.00360964 7.20036 -0.16137 9.00995 0.160079 10.7558C0.481528 12.5016 1.27497 14.1052 2.44006 15.3639C3.60515 16.6226 5.08958 17.4797 6.70561 17.827C8.32164 18.1743 9.9967 17.996 11.519 17.3149C13.0412 16.6337 14.3423 15.4801 15.2578 14.0001C16.1732 12.52 16.6618 10.78 16.6618 8.99997C16.6594 6.6138 15.781 4.32609 14.2191 2.63881C12.6573 0.951537 10.5396 0.00251983 8.33088 0ZM11.3476 11.2794C11.4072 11.3437 11.4544 11.4201 11.4866 11.5041C11.5188 11.5882 11.5354 11.6782 11.5354 11.7692C11.5354 11.8602 11.5188 11.9502 11.4866 12.0343C11.4544 12.1183 11.4072 12.1947 11.3476 12.259C11.2881 12.3233 11.2174 12.3743 11.1396 12.4092C11.0618 12.444 10.9784 12.4619 10.8942 12.4619C10.81 12.4619 10.7266 12.444 10.6489 12.4092C10.5711 12.3743 10.5004 12.3233 10.4408 12.259L8.33088 9.97872L6.22093 12.259C6.16139 12.3233 6.0907 12.3743 6.01291 12.4092C5.93511 12.444 5.85174 12.4619 5.76753 12.4619C5.68333 12.4619 5.59995 12.444 5.52216 12.4092C5.44437 12.3743 5.37368 12.3233 5.31414 12.259C5.2546 12.1947 5.20737 12.1183 5.17515 12.0343C5.14293 11.9502 5.12634 11.8602 5.12634 11.7692C5.12634 11.6782 5.14293 11.5882 5.17515 11.5041C5.20737 11.4201 5.2546 11.3437 5.31414 11.2794L7.4249 8.99997L5.31414 6.72055C5.19389 6.59065 5.12634 6.41446 5.12634 6.23075C5.12634 6.04703 5.19389 5.87085 5.31414 5.74094C5.43439 5.61104 5.59748 5.53806 5.76753 5.53806C5.93759 5.53806 6.10068 5.61104 6.22093 5.74094L8.33088 8.02122L10.4408 5.74094C10.5004 5.67662 10.5711 5.6256 10.6489 5.59079C10.7266 5.55597 10.81 5.53806 10.8942 5.53806C10.9784 5.53806 11.0618 5.55597 11.1396 5.59079C11.2174 5.6256 11.2881 5.67662 11.3476 5.74094C11.4072 5.80526 11.4544 5.88163 11.4866 5.96567C11.5188 6.04971 11.5354 6.13978 11.5354 6.23075C11.5354 6.32171 11.5188 6.41179 11.4866 6.49583C11.4544 6.57987 11.4072 6.65623 11.3476 6.72055L9.23686 8.99997L11.3476 11.2794Z" fill="#585353" fill-opacity="0.9"/>
</svg>
