<svg width="40" height="35" viewBox="0 0 40 35" fill="none" xmlns="http://www.w3.org/2000/svg">
<path fill-rule="evenodd" clip-rule="evenodd" d="M26 20.9362C28.6522 20.9362 31.1957 21.8553 33.0711 23.4912C34.9465 25.1272 36 27.346 36 29.6596V33.149C36 33.6117 35.7893 34.0555 35.4143 34.3826C35.0392 34.7098 34.5305 34.8937 34 34.8937C33.4696 34.8937 32.9609 34.7098 32.5858 34.3826C32.2107 34.0555 32 33.6117 32 33.149V29.6596C32 28.2714 31.3679 26.9401 30.2427 25.9586C29.1175 24.977 27.5913 24.4256 26 24.4256H10C8.40871 24.4256 6.88258 24.977 5.75737 25.9586C4.63215 26.9401 4 28.2714 4 29.6596V33.149C4 33.6117 3.78929 34.0555 3.41422 34.3826C3.03914 34.7098 2.53044 34.8937 2 34.8937C1.46957 34.8937 0.96086 34.7098 0.585787 34.3826C0.210714 34.0555 0 33.6117 0 33.149V29.6596C0 27.346 1.05357 25.1272 2.92894 23.4912C4.8043 21.8553 7.34784 20.9362 10 20.9362H26ZM34 10.4681C34.5305 10.4681 35.0392 10.6519 35.4143 10.9791C35.7893 11.3063 36 11.7501 36 12.2128V13.9575H38C38.5305 13.9575 39.0392 14.1413 39.4143 14.4685C39.7893 14.7957 40 15.2394 40 15.7021C40 16.1649 39.7893 16.6086 39.4143 16.9358C39.0392 17.263 38.5305 17.4468 38 17.4468H36V19.1915C36 19.6542 35.7893 20.098 35.4143 20.4252C35.0392 20.7524 34.5305 20.9362 34 20.9362C33.4696 20.9362 32.9609 20.7524 32.5858 20.4252C32.2107 20.098 32 19.6542 32 19.1915V17.4468H30C29.4696 17.4468 28.9609 17.263 28.5858 16.9358C28.2107 16.6086 28 16.1649 28 15.7021C28 15.2394 28.2107 14.7957 28.5858 14.4685C28.9609 14.1413 29.4696 13.9575 30 13.9575H32V12.2128C32 11.7501 32.2107 11.3063 32.5858 10.9791C32.9609 10.6519 33.4696 10.4681 34 10.4681ZM18 0C20.6522 0 23.1957 0.919071 25.0711 2.55503C26.9465 4.19099 28 6.40982 28 8.72341C28 11.037 26.9465 13.2558 25.0711 14.8918C23.1957 16.5278 20.6522 17.4468 18 17.4468C15.3479 17.4468 12.8043 16.5278 10.9289 14.8918C9.05358 13.2558 8.00001 11.037 8.00001 8.72341C8.00001 6.40982 9.05358 4.19099 10.9289 2.55503C12.8043 0.919071 15.3479 0 18 0ZM18 3.48937C17.2121 3.48937 16.4319 3.62475 15.7039 3.88778C14.976 4.15082 14.3145 4.53636 13.7574 5.02238C13.2002 5.50841 12.7583 6.08541 12.4567 6.72043C12.1552 7.35545 12 8.03607 12 8.72341C12 9.41076 12.1552 10.0914 12.4567 10.7264C12.7583 11.3614 13.2002 11.9384 13.7574 12.4244C14.3145 12.9105 14.976 13.296 15.7039 13.559C16.4319 13.8221 17.2121 13.9575 18 13.9575C19.5913 13.9575 21.1174 13.406 22.2427 12.4244C23.3679 11.4429 24 10.1116 24 8.72341C24 7.33526 23.3679 6.00396 22.2427 5.02238C21.1174 4.04081 19.5913 3.48937 18 3.48937Z" fill="white"/>
</svg>
