<svg width="36" height="39" viewBox="0 0 36 39" fill="none" xmlns="http://www.w3.org/2000/svg">
<path d="M28.5 17.8751H10.71L16.155 10.7901C16.4096 10.4582 16.5321 10.0304 16.4955 9.60071C16.459 9.17101 16.2663 8.77466 15.96 8.49883C15.6537 8.22301 15.2588 8.09031 14.8621 8.12992C14.4655 8.16954 14.0996 8.37823 13.845 8.71008L6.345 18.4601C6.29454 18.5376 6.24942 18.6191 6.21 18.7038C6.21 18.7851 6.21 18.8338 6.105 18.9151C6.03701 19.1014 6.00141 19.2997 6 19.5001C6.00141 19.7004 6.03701 19.8988 6.105 20.0851C6.105 20.1663 6.105 20.2151 6.21 20.2963C6.24942 20.3811 6.29454 20.4625 6.345 20.5401L13.845 30.2901C13.986 30.4735 14.1626 30.621 14.3623 30.7221C14.5619 30.8233 14.7796 30.8755 15 30.8751C15.3505 30.8758 15.6901 30.7436 15.96 30.5013C16.1119 30.3649 16.2374 30.1974 16.3295 30.0083C16.4215 29.8192 16.4782 29.6124 16.4963 29.3995C16.5144 29.1867 16.4936 28.9721 16.435 28.768C16.3765 28.5639 16.2813 28.3743 16.155 28.2101L10.71 21.1251H28.5C28.8978 21.1251 29.2794 20.9539 29.5607 20.6491C29.842 20.3444 30 19.9311 30 19.5001C30 19.0691 29.842 18.6558 29.5607 18.351C29.2794 18.0463 28.8978 17.8751 28.5 17.8751Z" fill="black"/>
</svg>
