<svg width="43" height="42" viewBox="0 0 43 42" fill="none" xmlns="http://www.w3.org/2000/svg">
<g clip-path="url(#clip0_151_731)">
<path d="M21.5002 3.5C31.3955 3.5 39.4168 11.3348 39.4168 21C39.4168 30.6652 31.3955 38.5 21.5002 38.5C11.6048 38.5 3.5835 30.6652 3.5835 21C3.5835 11.3348 11.6048 3.5 21.5002 3.5ZM21.5002 7C17.6987 7 14.053 8.475 11.365 11.1005C8.67694 13.726 7.16683 17.287 7.16683 21C7.16683 24.713 8.67694 28.274 11.365 30.8995C14.053 33.525 17.6987 35 21.5002 35C25.3016 35 28.9473 33.525 31.6354 30.8995C34.3234 28.274 35.8335 24.713 35.8335 21C35.8335 17.287 34.3234 13.726 31.6354 11.1005C28.9473 8.475 25.3016 7 21.5002 7ZM21.5002 10.5C21.939 10.5001 22.3626 10.6574 22.6905 10.9423C23.0184 11.2271 23.2279 11.6196 23.2793 12.0452L23.2918 12.25V20.2755L28.1419 25.0128C28.4632 25.3277 28.6498 25.7503 28.6637 26.1947C28.6775 26.6391 28.5177 27.072 28.2167 27.4055C27.9156 27.739 27.4959 27.948 27.0427 27.9902C26.5896 28.0324 26.137 27.9045 25.7769 27.6325L25.6085 27.4872L20.2335 22.2372C19.955 21.965 19.7762 21.6108 19.7246 21.2292L19.7085 21V12.25C19.7085 11.7859 19.8973 11.3408 20.2333 11.0126C20.5693 10.6844 21.025 10.5 21.5002 10.5Z" fill="#5B4DE2"/>
</g>
<defs>
<clipPath id="clip0_151_731">
<rect width="43" height="42" fill="white"/>
</clipPath>
</defs>
</svg>
