<svg width="46" height="48" viewBox="0 0 46 48" fill="none" xmlns="http://www.w3.org/2000/svg">
<g clip-path="url(#clip0_149_667)">
<rect width="46" height="48" fill="white"/>
<path d="M31.9844 5.25C28.3745 5.25 25.1706 6.73688 23 9.2925C20.8294 6.73688 17.6255 5.25 14.0156 5.25C10.8715 5.25397 7.85722 6.55904 5.63398 8.87894C3.41074 11.1988 2.16005 14.3442 2.15625 17.625C2.15625 31.1887 21.169 42.0263 21.9776 42.4819C22.2918 42.6585 22.6431 42.7509 23 42.7509C23.3569 42.7509 23.7082 42.6585 24.0224 42.4819C24.831 42.0263 43.8438 31.1887 43.8438 17.625C43.8399 14.3442 42.5893 11.1988 40.366 8.87894C38.1428 6.55904 35.1285 5.25397 31.9844 5.25ZM30.9979 31.9425C28.4953 34.1584 25.8201 36.1528 23 37.905C20.1799 36.1528 17.5047 34.1584 15.0021 31.9425C11.1083 28.4569 6.46875 23.1413 6.46875 17.625C6.46875 15.5364 7.26386 13.5334 8.67918 12.0565C10.0945 10.5797 12.0141 9.75 14.0156 9.75C17.2141 9.75 19.8914 11.5125 21.0037 14.3512C21.1656 14.7651 21.4419 15.1192 21.7975 15.3685C22.153 15.6178 22.5716 15.7509 23 15.7509C23.4284 15.7509 23.847 15.6178 24.2025 15.3685C24.5581 15.1192 24.8344 14.7651 24.9963 14.3512C26.1086 11.5125 28.7859 9.75 31.9844 9.75C33.9859 9.75 35.9055 10.5797 37.3208 12.0565C38.7361 13.5334 39.5312 15.5364 39.5312 17.625C39.5312 23.1413 34.8917 28.4569 30.9979 31.9425Z" fill="black"/>
</g>
<defs>
<clipPath id="clip0_149_667">
<rect width="46" height="48" fill="white"/>
</clipPath>
</defs>
</svg>
