<svg width="409" height="237" viewBox="0 0 409 237" fill="none" xmlns="http://www.w3.org/2000/svg">
<g clip-path="url(#clip0_123_767)">
<path d="M285.069 113.626C285.069 113.626 268.616 110.453 270.698 117.195C272.781 123.936 286.527 119.574 286.527 119.574L285.069 113.626Z" fill="#FFB8B8"/>
<path d="M320.564 78.0171C320.769 77.8397 321.02 77.718 321.291 77.6649C321.562 77.6117 321.844 77.6289 322.105 77.7148C322.367 77.8007 322.6 77.952 322.779 78.1529C322.958 78.3539 323.078 78.597 323.124 78.8569L323.687 81.9664C323.687 81.9664 326.229 94.4044 324.052 102.305C321.875 110.206 320.33 120.613 314.448 121.722C309.415 122.671 290.276 121.168 284.858 120.715C284.467 120.682 284.105 120.509 283.844 120.232C283.583 119.954 283.442 119.592 283.451 119.219L283.552 114.681C283.56 114.323 283.705 113.981 283.959 113.717C284.213 113.454 284.559 113.288 284.933 113.25L306.845 111.025C307.187 110.991 307.508 110.848 307.755 110.621C308.003 110.393 308.163 110.093 308.211 109.769C308.732 106.22 310.417 95.2162 312.091 89.431C313.444 84.7562 317.887 80.3424 320.564 78.0171Z" fill="#575A89"/>
<path d="M409 229.058H257.785V229.743H409V229.058Z" fill="#3F3D56"/>
<path d="M306.326 210.67V220.187L311.949 221.377L315.698 219.592L315.281 212.058L306.326 210.67Z" fill="#FFB8B8"/>
<path d="M339.544 210.67V220.187L345.168 221.377L348.916 219.592L348.5 212.058L339.544 210.67Z" fill="#FFB8B8"/>
<path d="M317.572 133.341C317.572 133.341 310.075 147.815 310.283 159.117C310.408 165.939 310.061 172.762 309.242 179.54L305.493 213.446L317.572 214.041L323.195 177.557L334.025 149.402L338.191 182.911L339.232 216.618H349.645C349.645 216.618 354.435 184.695 351.728 177.557C351.728 177.557 357.976 137.505 352.977 135.522C347.979 133.539 317.572 133.341 317.572 133.341Z" fill="#2F2E41"/>
<path d="M310.075 217.61C310.075 217.61 307.992 210.273 305.076 214.041C302.161 217.808 293.83 224.153 293.83 224.153C293.83 224.153 281.334 230.498 292.789 232.084C304.243 233.67 305.493 230.101 305.493 230.101C305.493 230.101 307.367 229.11 309.033 229.705C310.7 230.299 317.989 230.101 318.405 227.722C318.822 225.342 316.114 212.256 315.281 214.635C314.448 217.015 310.075 217.61 310.075 217.61Z" fill="#2F2E41"/>
<path d="M348.396 217.411C348.396 217.411 348.396 215.23 344.439 215.032C340.481 214.834 339.857 217.411 339.857 217.411C339.857 217.411 338.815 218.403 338.607 221.377C338.399 224.351 338.607 232.084 338.607 232.084C338.607 232.084 336.733 238.032 345.272 236.843C353.81 235.653 350.686 229.506 350.686 229.506L348.396 217.411Z" fill="#2F2E41"/>
<path d="M333.192 59.3829L332.151 70.4866L330.276 74.6504L335.275 81.3919L347.562 70.4866C347.562 70.4866 345.271 64.5382 346.729 61.1675L333.192 59.3829Z" fill="#FFB8B8"/>
<path d="M361.1 78.4178L361.004 79.3953L357.351 116.487C357.351 116.487 357.207 118.212 356.941 120.512C356.491 124.403 355.691 129.937 354.644 131.557C352.977 134.134 354.227 136.315 354.227 136.315C344.647 141.669 316.323 133.936 316.323 133.936L322.779 109.349C322.779 109.349 316.948 83.7713 317.572 81.392C318.197 79.0126 331.318 70.4866 331.318 70.4866L331.705 71.478C337.297 78.6161 342.981 72.4694 344.647 71.0814L347.979 68.3055L361.1 78.4178Z" fill="#575A89"/>
<path d="M318.271 146.45C298.415 149.015 279.473 149.953 261.945 148.374C255.721 147.774 249.548 146.764 243.47 145.354C232.325 142.842 218.644 142.842 203.614 144.179C194.476 144.954 185.468 146.773 176.786 149.596C165.138 153.435 152.378 153.103 138.85 149.889C133.298 148.513 127.947 146.485 122.921 143.851C113.031 138.791 101.326 140.623 88.5686 146.45V101.204C100.479 96.266 112.081 95.4688 123.316 99.6317C127.411 101.189 131.645 102.391 135.968 103.225C151.58 106.13 167.697 105.437 182.971 101.204C203.626 94.5412 225.231 96.6125 247.112 101.204C271.489 106.106 295.247 106.395 318.271 101.204V146.45Z" fill="#3F3D56"/>
<path d="M151.215 229.058H0V229.743H151.215V229.058Z" fill="#3F3D56"/>
<path d="M187.151 17.0759L198.521 10.8257L191.956 1.58422e-05L180.586 6.25021L187.151 17.0759Z" fill="#FF6584"/>
<path d="M145.027 71.5765L156.397 65.3263L149.832 54.5006L138.462 60.7508L145.027 71.5765Z" fill="#3F3D56"/>
<path d="M260.598 57.1801L271.969 50.9299L265.404 40.1043L254.033 46.3545L260.598 57.1801Z" fill="#D0CDE1"/>
<path d="M64.3922 145.198L71.2678 175.502L50.3865 220.111L62.6097 225.202L86.0372 174.048L71.0608 129.123L62.1481 131.305L64.3922 145.198Z" fill="#2F2E41"/>
<path d="M58.2808 136.865C58.2808 136.865 60.8272 141.229 66.4295 144.865C72.0318 148.502 83.7456 172.503 83.7456 172.503L71.0132 220.991L88.5839 225.597L98.2606 168.624L78.398 125.955L58.2808 136.865Z" fill="#2F2E41"/>
<path d="M51.9146 218.414C51.9146 218.414 49.3681 221.081 50.3867 223.02C51.4053 224.96 51.9146 230.051 51.9146 230.051H54.2065V224.232L61.5913 230.778C61.5913 230.778 78.6527 232.233 78.3981 230.778C78.1434 229.323 68.2121 225.929 68.2121 225.929L63.3738 218.899L51.9146 218.414Z" fill="#2F2E41"/>
<path d="M74.3236 219.052C74.3236 219.052 71.7771 221.718 72.7957 223.658C73.8143 225.597 74.3236 230.689 74.3236 230.689H76.6154V224.87L84.0002 231.416C84.0002 231.416 101.062 232.87 100.807 231.416C100.552 229.961 90.6211 226.567 90.6211 226.567L85.7828 219.536L74.3236 219.052Z" fill="#2F2E41"/>
<path d="M68.212 70.4371C73.5563 70.4371 77.8887 66.3125 77.8887 61.2245C77.8887 56.1365 73.5563 52.0118 68.212 52.0118C62.8678 52.0118 58.5354 56.1365 58.5354 61.2245C58.5354 66.3125 62.8678 70.4371 68.212 70.4371Z" fill="#A0616A"/>
<path d="M60.318 61.7094C60.318 61.7094 59.5541 70.922 54.7158 74.3161C49.8774 77.7103 49.8774 80.6195 49.8774 80.6195L69.4854 89.1048L64.9017 79.8922C64.9017 79.8922 63.6285 79.4073 65.6656 76.9829C67.7028 74.5586 69.4854 68.7401 69.4854 68.7401L60.318 61.7094Z" fill="#A0616A"/>
<path d="M80.3079 127.046C75.0098 131.45 68.8715 134.842 62.2274 137.038L57.6057 138.566C57.6057 138.566 47.8326 127.274 52.7677 118.377C53.7815 116.496 55.2314 114.86 57.0076 113.591L56.9057 113.167L54.428 102.875L54.2064 101.954L46.8216 100.257C46.8216 100.257 46.7987 100.264 46.7554 100.274C46.2029 100.412 42.457 101.067 45.2938 92.7414C47.1809 87.2017 48.5492 81.9272 49.3198 78.7031C49.4265 78.2529 49.6278 77.8278 49.9115 77.4536C50.1952 77.0793 50.5555 76.7636 50.9707 76.5253C51.386 76.2871 51.8475 76.1313 52.3277 76.0673C52.8078 76.0034 53.2965 76.0325 53.7645 76.1531C56.1292 76.7704 59.0668 77.9427 60.8273 80.1346C64.1378 84.2561 64.8064 79.9524 64.8064 79.9524C64.8064 79.9524 74.0691 89.8321 73.5597 94.196C73.4722 95.3668 73.5098 96.543 73.6718 97.7065V97.7114C73.7329 98.2302 73.8067 98.7708 73.8908 99.3236C74.5223 103.406 75.7446 108.151 76.1928 109.819C76.2259 109.937 76.2539 110.042 76.2768 110.129C76.3303 110.33 76.3609 110.439 76.3609 110.439L80.3079 127.046Z" fill="#575A89"/>
<path opacity="0.2" d="M67.1934 114.803L65.1562 121.349C65.1562 121.349 57.3436 119.453 52.7676 118.377C53.7814 116.496 55.2313 114.86 57.0075 113.591L56.9056 113.167L54.4279 102.875L54.2064 101.954L46.8215 100.257C46.8215 100.257 46.7986 100.264 46.7553 100.274L46.3123 97.1052C46.3123 97.1052 59.0447 97.8325 59.8086 100.742C60.5726 103.651 59.0447 106.56 58.2807 107.045C57.5168 107.53 58.2807 107.045 59.8086 107.772C61.3365 108.5 59.2993 107.772 58.2807 109.227C57.2621 110.682 58.5354 109.47 58.79 110.197C59.0447 110.924 58.79 109.954 58.5354 111.167C58.2807 112.379 59.554 111.409 59.8086 111.409C60.0633 111.409 67.1934 114.803 67.1934 114.803Z" fill="black"/>
<path d="M64.9016 113.591L81.4538 117.712C81.4538 117.712 90.3665 108.985 95.2048 111.652C100.043 114.318 86.5468 120.379 86.5468 120.379L81.7084 121.349L64.1377 119.41L64.9016 113.591Z" fill="#A0616A"/>
<path d="M46.3123 96.1355L47.3308 103.409C47.3308 103.409 46.5669 103.409 47.3308 105.106C48.0948 106.803 47.3308 110.197 47.3308 110.197C47.3308 110.197 45.803 110.439 47.0762 111.167C48.3494 111.894 49.6227 113.833 49.1134 114.561C48.6041 115.288 47.5855 116.258 49.8773 116.743C52.1692 117.228 65.1562 120.379 65.1562 120.379L67.1934 113.833C67.1934 113.833 60.0633 110.439 59.8086 110.439C59.554 110.439 58.2807 111.409 58.5354 110.197C58.79 108.985 59.0447 109.954 58.79 109.227C58.5354 108.5 57.2621 109.712 58.2807 108.257C59.2993 106.803 61.3365 107.53 59.8086 106.803C58.2807 106.075 57.5168 106.56 58.2807 106.075C59.0447 105.591 60.5726 102.681 59.8086 99.772C59.0447 96.8628 46.3123 96.1355 46.3123 96.1355Z" fill="#575A89"/>
<path d="M65.9804 77.5051L66.7477 76.3435C67.1074 75.799 67.2251 75.1409 67.0751 74.5138C66.925 73.8867 66.5195 73.342 65.9476 72.9996L60.101 69.4988C59.5291 69.1564 58.8378 69.0443 58.1792 69.1872C57.5205 69.33 56.9484 69.7161 56.5887 70.2606L55.8214 71.4222C55.3892 71.4201 54.9636 71.5229 54.5847 71.7209C54.2058 71.9189 53.8862 72.2056 53.6561 72.5538L51.768 75.412C51.4083 75.9564 51.2905 76.6146 51.4406 77.2417C51.5906 77.8688 51.9962 78.4135 52.5681 78.7559L60.4465 83.4732C61.0183 83.8156 61.7096 83.9277 62.3683 83.7849C63.027 83.642 63.5991 83.2559 63.9588 82.7115L65.8469 79.8533C66.0769 79.505 66.2099 79.1065 66.2332 78.6957C66.2566 78.2848 66.1695 77.875 65.9804 77.5051Z" fill="#575A89"/>
<path d="M67.8749 61.0661C68.4162 60.3134 68.1789 59.2675 68.5664 58.4331C69.1748 57.1229 70.9688 56.8541 72.4708 56.7679C73.4668 56.6694 74.4721 56.6952 75.4611 56.8445C75.8979 56.924 76.3094 57.099 76.663 57.3558C77.0166 57.6125 77.3027 57.944 77.4988 58.324C77.7098 58.7525 77.6876 57.4246 77.5888 55.7183C77.4892 53.9771 76.8115 52.311 75.6535 50.96C74.4954 49.609 72.9168 48.6429 71.145 48.2008C71.124 48.1956 71.1031 48.1905 71.0824 48.1854C69.2677 47.7425 67.3935 47.4042 65.5282 47.5693C63.6628 47.7345 61.7893 48.4562 60.5929 49.8286C60.0461 50.4559 59.6518 51.2014 59.0445 51.7761C57.9777 52.7859 56.4255 53.1264 54.9962 53.5734C53.3589 54.0347 51.843 54.8214 50.5486 55.8816C49.2498 56.9578 48.4488 58.4781 48.3195 60.1128C48.2415 62.0008 49.4538 63.9791 51.4778 64.3983C51.8299 64.4652 52.1605 64.6102 52.4427 64.8215C54.3479 66.2995 52.0948 67.7488 52.0691 69.3627C52.0477 70.7094 53.5997 71.6232 55.0108 71.7186C56.331 71.7716 57.6295 71.3859 58.6837 70.6275C59.7379 69.869 60.4822 68.7851 60.7891 67.5615C61.0302 66.4615 60.8946 65.3228 60.7844 64.204C60.6583 62.9233 63.6234 59.9829 61.6592 62.143C61.2761 62.5533 61.0119 63.0515 60.8925 63.5886C60.5301 65.342 62.198 65.9731 63.2345 66.9732C63.8032 67.5385 64.1941 68.2442 64.3629 69.0103C64.5317 69.7763 64.4716 70.5721 64.1894 71.3073C65.0838 70.5727 65.6808 69.5638 65.8773 68.4549C66.0738 67.3459 65.8576 66.2065 65.2659 65.2331C64.9367 64.726 64.5073 64.2816 64.1961 63.7644C63.7104 62.9573 63.6149 61.224 65.0297 61.3041C66.0395 61.3613 67.069 62.1866 67.8749 61.0661Z" fill="#2F2E41"/>
<path d="M340.273 64.7366C346.139 64.7366 350.895 60.2091 350.895 54.6243C350.895 49.0395 346.139 44.5121 340.273 44.5121C334.407 44.5121 329.652 49.0395 329.652 54.6243C329.652 60.2091 334.407 64.7366 340.273 64.7366Z" fill="#FFB8B8"/>
<path opacity="0.2" d="M360.587 79.7919L356.934 116.884C356.934 116.884 356.791 118.609 356.524 120.909C348.77 122.674 327.361 124.022 327.361 124.022L326.319 116.884L350.062 110.737C350.062 110.737 347.146 95.2715 350.478 88.9266C351.294 87.383 352.024 85.7995 352.665 84.1826C353.249 82.6916 354.357 81.4393 355.801 80.6388C357.246 79.8382 358.937 79.5389 360.587 79.7919Z" fill="black"/>
<path d="M328.61 115.893C328.61 115.893 312.157 112.72 314.24 119.462C316.323 126.203 330.068 121.841 330.068 121.841L328.61 115.893Z" fill="#FFB8B8"/>
<path d="M354.643 77.4264L361.1 78.4178C361.1 78.4178 365.681 90.3145 364.848 98.444C364.015 106.573 364.224 117.082 358.6 119.065C352.977 121.048 327.777 122.634 327.777 122.634L326.736 115.496L350.478 109.349C350.478 109.349 347.562 93.8836 350.895 87.5386C354.227 81.1937 354.643 77.4264 354.643 77.4264Z" fill="#575A89"/>
<path d="M331.217 44.3536L329.176 43.5755C329.176 43.5755 333.444 39.1014 339.383 39.4905L337.713 37.7397C337.713 37.7397 341.796 36.1835 345.507 40.2686C347.459 42.416 349.716 44.9402 351.124 47.7836H353.31L352.397 49.6965L355.591 51.6093L352.313 51.2657C352.508 52.3132 352.538 53.3826 352.402 54.4385C352.262 55.4948 351.695 56.4577 350.823 57.124C350.823 57.124 348.291 52.1347 348.291 51.3566V53.3018C348.291 53.3018 346.25 51.5511 346.25 50.3839L345.136 51.7456H337.713L338.826 49.9949L334.558 50.5785L336.228 48.4387L329.619 57.2747C329.619 57.2747 325.835 47.2715 331.217 44.3536Z" fill="#2F2E41"/>
<path d="M203.42 161.532C224.895 161.532 242.304 144.958 242.304 124.513C242.304 104.067 224.895 87.4933 203.42 87.4933C181.945 87.4933 164.536 104.067 164.536 124.513C164.536 144.958 181.945 161.532 203.42 161.532Z" fill="#6415FF"/>
<path d="M222.502 131.87C222.502 134.142 213.741 139.84 203.6 139.84C193.459 139.84 185.778 134.142 185.778 131.87C185.778 129.599 193.459 132.642 203.6 132.642C213.741 132.642 222.502 129.599 222.502 131.87Z" fill="#D0CDE1"/>
<path d="M217.461 118C219.847 118 221.782 116.158 221.782 113.887C221.782 111.615 219.847 109.773 217.461 109.773C215.075 109.773 213.141 111.615 213.141 113.887C213.141 116.158 215.075 118 217.461 118Z" fill="#3F3D56"/>
<path d="M189.379 118C191.765 118 193.699 116.158 193.699 113.887C193.699 111.615 191.765 109.773 189.379 109.773C186.992 109.773 185.058 111.615 185.058 113.887C185.058 116.158 186.992 118 189.379 118Z" fill="#3F3D56"/>
<path d="M191.899 113.887C193.092 113.887 194.059 112.966 194.059 111.83C194.059 110.694 193.092 109.773 191.899 109.773C190.706 109.773 189.739 110.694 189.739 111.83C189.739 112.966 190.706 113.887 191.899 113.887Z" fill="#D0CDE1"/>
<path d="M213.861 113.887C215.054 113.887 216.021 112.966 216.021 111.83C216.021 110.694 215.054 109.773 213.861 109.773C212.668 109.773 211.701 110.694 211.701 111.83C211.701 112.966 212.668 113.887 213.861 113.887Z" fill="#D0CDE1"/>
<path d="M204.14 89.8928C212.69 89.8928 219.621 83.2938 219.621 75.1536C219.621 67.0134 212.69 60.4144 204.14 60.4144C195.59 60.4144 188.658 67.0134 188.658 75.1536C188.658 83.2938 195.59 89.8928 204.14 89.8928Z" fill="#6415FF"/>
<path d="M199.168 76.6793C204.635 79.7781 204.832 89.0644 204.832 89.0644C204.832 89.0644 196.164 93.3265 190.696 90.2277C185.229 87.1289 185.032 77.8426 185.032 77.8426C185.032 77.8426 193.701 73.5805 199.168 76.6793Z" fill="#3F3D56"/>
<path d="M218.511 88.5472C213.57 92.364 204.347 89.3359 204.347 89.3359C204.347 89.3359 203.136 80.1197 208.077 76.303C213.018 72.4862 222.241 75.5142 222.241 75.5142C222.241 75.5142 223.453 84.7305 218.511 88.5472Z" fill="#3F3D56"/>
</g>
<defs>
<clipPath id="clip0_123_767">
<rect width="409" height="237" fill="white"/>
</clipPath>
</defs>
</svg>
