<svg width="20" height="21" viewBox="0 0 20 21" fill="none" xmlns="http://www.w3.org/2000/svg">
<path d="M10 1.96875C8.39303 1.96875 6.82214 2.4691 5.486 3.40652C4.14985 4.34395 3.10844 5.67635 2.49348 7.23523C1.87852 8.79411 1.71762 10.5095 2.03112 12.1644C2.34463 13.8193 3.11846 15.3394 4.25476 16.5325C5.39106 17.7256 6.8388 18.5381 8.4149 18.8673C9.99099 19.1965 11.6247 19.0276 13.1093 18.3818C14.594 17.7361 15.8629 16.6427 16.7557 15.2397C17.6485 13.8368 18.125 12.1873 18.125 10.5C18.1227 8.2381 17.266 6.06954 15.7427 4.47013C14.2195 2.87073 12.1542 1.97114 10 1.96875ZM12.9422 12.6607C13.0003 12.7217 13.0463 12.7941 13.0777 12.8737C13.1092 12.9534 13.1254 13.0388 13.1254 13.125C13.1254 13.2112 13.1092 13.2966 13.0777 13.3763C13.0463 13.4559 13.0003 13.5283 12.9422 13.5893C12.8841 13.6503 12.8152 13.6986 12.7393 13.7316C12.6634 13.7646 12.5821 13.7816 12.5 13.7816C12.4179 13.7816 12.3366 13.7646 12.2607 13.7316C12.1848 13.6986 12.1159 13.6503 12.0578 13.5893L10 11.4278L7.94219 13.5893C7.88412 13.6503 7.81518 13.6986 7.73931 13.7316C7.66344 13.7646 7.58213 13.7816 7.5 13.7816C7.41788 13.7816 7.33656 13.7646 7.26069 13.7316C7.18482 13.6986 7.11588 13.6503 7.05782 13.5893C6.99975 13.5283 6.95368 13.4559 6.92226 13.3763C6.89083 13.2966 6.87466 13.2112 6.87466 13.125C6.87466 13.0388 6.89083 12.9534 6.92226 12.8737C6.95368 12.7941 6.99975 12.7217 7.05782 12.6607L9.11641 10.5L7.05782 8.3393C6.94054 8.21616 6.87466 8.04915 6.87466 7.875C6.87466 7.70085 6.94054 7.53384 7.05782 7.4107C7.17509 7.28756 7.33415 7.21839 7.5 7.21839C7.66586 7.21839 7.82492 7.28756 7.94219 7.4107L10 9.57223L12.0578 7.4107C12.1159 7.34973 12.1848 7.30136 12.2607 7.26837C12.3366 7.23537 12.4179 7.21839 12.5 7.21839C12.5821 7.21839 12.6634 7.23537 12.7393 7.26837C12.8152 7.30136 12.8841 7.34973 12.9422 7.4107C13.0003 7.47168 13.0463 7.54406 13.0777 7.62372C13.1092 7.70339 13.1254 7.78877 13.1254 7.875C13.1254 7.96123 13.1092 8.04661 13.0777 8.12628C13.0463 8.20594 13.0003 8.27832 12.9422 8.3393L10.8836 10.5L12.9422 12.6607Z" fill="#585353" fill-opacity="0.9"/>
</svg>
