<svg width="18" height="19" viewBox="0 0 18 19" fill="none" xmlns="http://www.w3.org/2000/svg">
<path d="M9 3.16683C10.65 3.16683 12 4.59183 12 6.3335C12 7.996 10.425 10.6877 9 12.5877C7.575 10.6085 6 7.996 6 6.3335C6 4.59183 7.35 3.16683 9 3.16683ZM9 1.5835C6.525 1.5835 4.5 3.721 4.5 6.3335C4.5 9.896 9 15.0418 9 15.0418C9 15.0418 13.5 9.81683 13.5 6.3335C13.5 3.721 11.475 1.5835 9 1.5835ZM9 4.75016C8.175 4.75016 7.5 5.46266 7.5 6.3335C7.5 7.20433 8.175 7.91683 9 7.91683C9.825 7.91683 10.5 7.20433 10.5 6.3335C10.5 5.46266 9.825 4.75016 9 4.75016ZM15 15.0418C15 16.7835 12.3 18.2085 9 18.2085C5.7 18.2085 3 16.7835 3 15.0418C3 14.0127 3.9 13.1418 5.325 12.5085L5.775 13.221C5.025 13.6168 4.5 14.0918 4.5 14.646C4.5 15.7543 6.525 16.6252 9 16.6252C11.475 16.6252 13.5 15.7543 13.5 14.646C13.5 14.0918 12.975 13.6168 12.15 13.221L12.6 12.5085C14.1 13.1418 15 14.0127 15 15.0418Z" fill="#5B4DE2"/>
</svg>
