<svg width="33" height="33" viewBox="0 0 33 33" fill="none" xmlns="http://www.w3.org/2000/svg">
<path fill-rule="evenodd" clip-rule="evenodd" d="M8.64286 5.5H24.3571C25.1907 5.5 25.9901 5.83112 26.5795 6.42052C27.1689 7.00992 27.5 7.80932 27.5 8.64286V24.3571C27.5 25.1907 27.1689 25.9901 26.5795 26.5795C25.9901 27.1689 25.1907 27.5 24.3571 27.5H8.64286C7.80932 27.5 7.00992 27.1689 6.42052 26.5795C5.83112 25.9901 5.5 25.1907 5.5 24.3571V8.64286C5.5 7.80932 5.83112 7.00992 6.42052 6.42052C7.00992 5.83112 7.80932 5.5 8.64286 5.5Z" stroke="black" stroke-linecap="round" stroke-linejoin="round"/>
<path d="M11.7857 16.5L14.9286 19.6429L21.2143 13.3572" stroke="black" stroke-linecap="round" stroke-linejoin="round"/>
</svg>
