<svg width="23" height="25" viewBox="0 0 23 25" fill="none" xmlns="http://www.w3.org/2000/svg">
<path d="M15.9922 2.73438C14.1872 2.73438 12.5853 3.50879 11.5 4.83984C10.4147 3.50879 8.81277 2.73438 7.00781 2.73438C5.43575 2.73644 3.92861 3.41616 2.81699 4.62445C1.70537 5.83273 1.08003 7.47092 1.07812 9.17969C1.07813 16.2441 10.5845 21.8887 10.9888 22.126C11.1459 22.2179 11.3216 22.2661 11.5 22.2661C11.6784 22.2661 11.8541 22.2179 12.0112 22.126C12.4155 21.8887 21.9219 16.2441 21.9219 9.17969C21.92 7.47092 21.2946 5.83273 20.183 4.62445C19.0714 3.41616 17.5643 2.73644 15.9922 2.73438ZM15.4989 16.6367C14.2477 17.7909 12.9101 18.8296 11.5 19.7422C10.0899 18.8296 8.75234 17.7909 7.50105 16.6367C5.55414 14.8213 3.23438 12.0527 3.23438 9.17969C3.23438 8.09189 3.63193 7.04864 4.33959 6.27944C5.04725 5.51025 6.00703 5.07813 7.00781 5.07813C8.60703 5.07813 9.9457 5.99609 10.5018 7.47461C10.5828 7.69014 10.721 7.87459 10.8987 8.00442C11.0765 8.13426 11.2858 8.2036 11.5 8.2036C11.7142 8.2036 11.9235 8.13426 12.1013 8.00442C12.279 7.87459 12.4172 7.69014 12.4982 7.47461C13.0543 5.99609 14.393 5.07813 15.9922 5.07813C16.993 5.07813 17.9528 5.51025 18.6604 6.27944C19.3681 7.04864 19.7656 8.09189 19.7656 9.17969C19.7656 12.0527 17.4459 14.8213 15.4989 16.6367Z" fill="white"/>
</svg>
