<svg width="22" height="22" viewBox="0 0 22 22" fill="none" xmlns="http://www.w3.org/2000/svg">
<path d="M11.0046 20.1695C5.94181 20.1695 1.83789 16.0656 1.83789 11.0028C1.83789 5.9401 5.94181 1.83618 11.0046 1.83618C16.0673 1.83618 20.1712 5.9401 20.1712 11.0028C20.1712 16.0656 16.0673 20.1695 11.0046 20.1695ZM11.0046 18.3362C12.9495 18.3362 14.8147 17.5636 16.19 16.1883C17.5653 14.813 18.3379 12.9478 18.3379 11.0028C18.3379 9.05793 17.5653 7.19267 16.19 5.8174C14.8147 4.44213 12.9495 3.66951 11.0046 3.66951C9.05964 3.66951 7.19437 4.44213 5.81911 5.8174C4.44384 7.19267 3.67122 9.05793 3.67122 11.0028C3.67122 12.9478 4.44384 14.813 5.81911 16.1883C7.19437 17.5636 9.05964 18.3362 11.0046 18.3362ZM7.79622 12.8362H12.8379C12.9594 12.8362 13.076 12.7879 13.162 12.7019C13.2479 12.616 13.2962 12.4994 13.2962 12.3778C13.2962 12.2563 13.2479 12.1397 13.162 12.0538C13.076 11.9678 12.9594 11.9195 12.8379 11.9195H9.17122C8.56344 11.9195 7.98054 11.6781 7.55077 11.2483C7.121 10.8185 6.87956 10.2356 6.87956 9.62785C6.87956 9.02006 7.121 8.43717 7.55077 8.0074C7.98054 7.57762 8.56344 7.33618 9.17122 7.33618H10.0879V5.50285H11.9212V7.33618H14.2129V9.16952H9.17122C9.04967 9.16952 8.93309 9.2178 8.84713 9.30376C8.76118 9.38971 8.71289 9.50629 8.71289 9.62785C8.71289 9.74941 8.76118 9.86598 8.84713 9.95194C8.93309 10.0379 9.04967 10.0862 9.17122 10.0862H12.8379C13.4457 10.0862 14.0286 10.3276 14.4583 10.7574C14.8881 11.1872 15.1296 11.7701 15.1296 12.3778C15.1296 12.9856 14.8881 13.5685 14.4583 13.9983C14.0286 14.4281 13.4457 14.6695 12.8379 14.6695H11.9212V16.5028H10.0879V14.6695H7.79622V12.8362Z" fill="#5B4DE2"/>
</svg>
