<svg width="186" height="155" viewBox="0 0 186 155" fill="none" xmlns="http://www.w3.org/2000/svg">
<mask id="mask0_69_56" style="mask-type:alpha" maskUnits="userSpaceOnUse" x="0" y="0" width="186" height="155">
<path d="M87.2602 7.87106C73.6734 10.8984 63.2109 18.7695 56.3086 31.0605C53.1844 36.5097 51.8039 41.0508 50.7867 48.498C49.5516 57.8828 52.3125 68.5996 59.6508 82.8886C65.318 93.8476 77.3063 112.072 85.1531 121.578C86.3883 123.031 87.1875 124.242 87.0422 124.363C86.9695 124.424 84.0633 124.848 80.6484 125.211C73.6734 125.998 67.643 128.178 65.7539 130.539C64.0102 132.779 64.0828 137.078 65.8992 139.137C69.8953 143.678 78.6867 145.494 96.9961 145.555C120.391 145.615 130.055 142.346 130.055 134.475C130.055 129.752 124.388 126.543 113.562 125.211C110.438 124.848 107.749 124.424 107.677 124.363C107.531 124.303 109.493 121.396 112.036 117.945C128.892 95.4824 139.355 76.7129 142.697 62.8476C148.364 39.5976 133.615 15.1972 109.711 8.47653C102.954 6.53903 94.1625 6.29684 87.2602 7.87106ZM106.005 13.0175C112.98 14.5312 117.776 16.9531 123.879 22.0996C130.345 27.4277 134.632 33.7246 137.03 41.1718C138.991 47.2265 138.846 58.791 136.739 65.2695C132.162 79.3164 120.464 98.7519 104.116 119.58C100.629 124.061 97.5047 127.754 97.2867 127.754C96.6328 127.754 87.6234 116.311 80.8664 106.926C69.2414 90.7597 61.2492 76.1679 57.7617 65.0879C49.6242 38.9922 69.2414 12.291 96.6328 12.1699C99.6117 12.1093 103.826 12.5332 106.005 13.0175ZM93.0727 131.508C96.4149 135.564 98.0859 135.625 100.992 131.689C102.881 129.207 104.116 129.086 113.416 130.539C129.909 133.143 128.311 137.805 110.22 139.863C88.6406 142.225 62.6297 137.623 71.4211 132.961C74.0367 131.508 82.8281 129.873 88.7859 129.631C91.0383 129.57 91.6922 129.873 93.0727 131.508Z" fill="#5B4CE2"/>
<path d="M84.2813 41.0508C71.857 45.1074 71.9297 45.0469 71.9297 46.8633C71.9297 48.6797 72.6563 49.1641 78.3234 50.9199L82.8281 52.373V58.2461C82.8281 64.7852 83.2641 65.5117 88.7859 67.873C94.6711 70.416 100.702 69.9922 107.023 66.6016L110.438 64.7852V58.4883C110.438 52.1309 110.728 51.4648 113.416 51.4648C114.506 51.4648 114.143 55.8242 112.908 56.9746C111.891 57.8828 111.891 58.2461 112.763 59.7598C113.562 61.1523 114.216 61.4551 116.25 61.4551C118.139 61.4551 118.938 61.0918 119.665 60.002C120.246 59.0332 120.319 58.125 119.81 57.459C118.72 55.7031 119.011 49.8906 120.246 49.043C121.554 48.1348 121.699 45.7734 120.464 44.9863C118.938 44.0176 97.7953 37.5391 96.1969 37.5996C95.4703 37.5996 90.0938 39.1738 84.2813 41.0508ZM108.984 46.6816C108.984 46.8633 106.151 47.8926 102.663 48.9824L96.3422 50.8594L90.3117 48.9824C86.9695 47.8926 84.2813 46.8633 84.2813 46.6816C84.2813 46.4395 86.9695 45.4707 90.3117 44.4414L96.2695 42.625L102.591 44.4414C106.151 45.4707 108.984 46.5 108.984 46.6816ZM93.4359 55.582C96.3422 56.4902 96.7055 56.4297 100.556 55.2188L104.625 53.9473V58.0645V62.2422L101.719 63.2109C97.868 64.4824 94.8164 64.4219 91.0383 62.9688L87.9141 61.8184V57.7617C87.9141 54.1895 88.0594 53.8262 89.2219 54.1895C89.8758 54.4316 91.8375 55.0371 93.4359 55.582Z" fill="#5B4CE2"/>
</mask>
<g mask="url(#mask0_69_56)">
<rect x="-35" y="-23" width="261" height="220" fill="black"/>
</g>
</svg>
