<svg width="28" height="18" viewBox="0 0 28 18" fill="none" xmlns="http://www.w3.org/2000/svg">
<path d="M7.12607 14.1369C9.57462 15.7785 11.6326 16.304 13.9999 16.304C16.0593 16.304 18.7472 15.5685 21.333 14.0013C23.1977 12.8709 24.7391 11.2234 25.9529 9.0454C24.6369 7.08705 23.1137 5.48388 21.3848 4.22991C18.9908 2.49235 16.3701 1.69556 13.9481 1.69556C11.4422 1.69556 8.55824 2.65314 6.09709 4.6643C4.32473 6.11147 2.98216 7.56823 2.06518 9.0298C3.55615 11.1766 5.24451 12.8769 7.12607 14.1369ZM13.9999 17.9996C11.2364 17.9996 8.77104 17.3696 5.9627 15.4869C3.75495 14.0085 1.81319 12.0057 0.133224 9.48699C0.0511848 9.36375 0.00561085 9.22516 0.000485912 9.08334C-0.00463902 8.94151 0.0308411 8.80077 0.103825 8.67341C1.1314 6.88185 2.69517 5.13349 4.78952 3.42113C7.61326 1.11358 10.9662 0 13.9481 0C16.8083 0 19.8602 0.92998 22.6055 2.92074C24.6341 4.3919 26.3897 6.28306 27.8736 8.58701C28.0276 8.82461 28.0416 9.1138 27.9114 9.361C26.5282 12.0009 24.6985 14.0193 22.4221 15.3993C19.5158 17.1596 16.4485 17.9996 13.9985 17.9996H13.9999ZM14.3275 13.6797C13.6473 13.6797 12.9737 13.5649 12.3453 13.3417C11.7168 13.1186 11.1458 12.7916 10.6648 12.3793C10.1838 11.967 9.80224 11.4776 9.54192 10.9389C9.28161 10.4002 9.14763 9.82286 9.14763 9.2398C9.14763 8.65674 9.28161 8.07939 9.54192 7.54072C9.80224 7.00205 10.1838 6.5126 10.6648 6.10031C11.1458 5.68803 11.7168 5.36099 12.3453 5.13786C12.9737 4.91474 13.6473 4.7999 14.3275 4.7999C15.7013 4.7999 17.0188 5.26767 17.9902 6.10031C18.9617 6.93296 19.5074 8.06226 19.5074 9.2398C19.5074 10.4173 18.9617 11.5466 17.9902 12.3793C17.0188 13.2119 15.7013 13.6797 14.3275 13.6797ZM14.3275 11.9997C14.7504 11.9997 15.1691 11.9284 15.5597 11.7897C15.9504 11.651 16.3054 11.4477 16.6043 11.1914C16.9033 10.9351 17.1405 10.6308 17.3023 10.296C17.4642 9.96113 17.5474 9.60224 17.5474 9.2398C17.5474 8.87736 17.4642 8.51847 17.3023 8.18362C17.1405 7.84876 16.9033 7.54451 16.6043 7.28823C16.3054 7.03194 15.9504 6.82865 15.5597 6.68995C15.1691 6.55125 14.7504 6.47986 14.3275 6.47986C13.4735 6.47986 12.6545 6.77064 12.0507 7.28823C11.4468 7.80582 11.1076 8.50782 11.1076 9.2398C11.1076 9.97178 11.4468 10.6738 12.0507 11.1914C12.6545 11.709 13.4735 11.9997 14.3275 11.9997Z" fill="#5B4CE2" fill-opacity="0.6"/>
</svg>
