<svg width="405" height="287" viewBox="0 0 405 287" fill="none" xmlns="http://www.w3.org/2000/svg">
<g clip-path="url(#clip0_123_896)">
<path d="M105.847 174.91C148.4 174.91 182.896 135.755 182.896 87.4549C182.896 39.1549 148.4 0 105.847 0C63.2935 0 28.7974 39.1549 28.7974 87.4549C28.7974 135.755 63.2935 174.91 105.847 174.91Z" fill="#F2F2F2"/>
<path d="M0 20.9983C0 52.8179 17.5868 78.5659 39.3207 78.5659L0 20.9983Z" fill="#2F2E41"/>
<path d="M39.3208 78.566C39.3208 46.3889 58.9467 20.3516 83.2004 20.3516L39.3208 78.566Z" fill="#9966FF"/>
<path d="M14.2466 23.8828C14.2466 54.108 25.4613 78.5659 39.3206 78.5659L14.2466 23.8828Z" fill="#9966FF"/>
<path d="M39.3208 78.566C39.3208 37.4508 62.0052 4.18091 90.0388 4.18091L39.3208 78.566Z" fill="#2F2E41"/>
<path d="M31.0488 78.9719C31.0488 78.9719 36.6251 78.7769 38.3057 77.4186C39.9863 76.0603 46.8835 74.4384 47.3004 76.6168C47.7173 78.7953 55.6806 87.4515 49.3849 87.5091C43.0893 87.5667 34.7567 86.396 33.0793 85.2363C31.402 84.0766 31.0488 78.9719 31.0488 78.9719Z" fill="#A8A8A8"/>
<path opacity="0.2" d="M49.4973 86.7508C43.2016 86.8084 34.869 85.6377 33.1917 84.478C31.9143 83.5948 31.4053 80.4257 31.235 78.9636C31.117 78.9694 31.0488 78.9718 31.0488 78.9718C31.0488 78.9718 31.402 84.0766 33.0794 85.2363C34.7567 86.396 43.0893 87.5667 49.3849 87.5091C51.2022 87.4924 51.83 86.7585 51.7955 85.6716C51.543 86.3283 50.8499 86.7384 49.4973 86.7508Z" fill="black"/>
<path d="M71.8434 184.739C109.202 184.739 139.488 180.063 139.488 174.294C139.488 168.525 109.202 163.849 71.8434 163.849C34.4845 163.849 4.19922 168.525 4.19922 174.294C4.19922 180.063 34.4845 184.739 71.8434 184.739Z" fill="#3F3D56"/>
<path opacity="0.1" d="M71.8434 183.064C103.209 183.064 128.636 179.137 128.636 174.294C128.636 169.451 103.209 165.524 71.8434 165.524C40.478 165.524 15.0513 169.451 15.0513 174.294C15.0513 179.137 40.478 183.064 71.8434 183.064Z" fill="black"/>
<path d="M302.629 287C359.167 287 405 279.923 405 271.192C405 262.462 359.167 255.385 302.629 255.385C246.092 255.385 200.259 262.462 200.259 271.192C200.259 279.923 246.092 287 302.629 287Z" fill="#3F3D56"/>
<path d="M112.357 274.53C146.32 274.53 173.852 270.278 173.852 265.034C173.852 259.789 146.32 255.538 112.357 255.538C78.3949 255.538 50.8628 259.789 50.8628 265.034C50.8628 270.278 78.3949 274.53 112.357 274.53Z" fill="#3F3D56"/>
<path d="M167.341 257.027C199.897 266.47 262.477 244.709 269.35 220.074" stroke="#2F2E41" stroke-width="2" stroke-miterlimit="10"/>
<path d="M111.996 106.342C111.996 106.342 159.021 91.5607 161.915 139.189C164.809 186.817 123.21 200.366 155.766 209.81" stroke="#2F2E41" stroke-width="2" stroke-miterlimit="10"/>
<path d="M66.563 220.601C66.563 220.601 80.6967 216.159 81.5665 230.474C82.4363 244.789 69.9333 248.861 79.7183 251.699" stroke="#2F2E41" stroke-width="2" stroke-miterlimit="10"/>
<path d="M281.684 231.259L278.834 251.909C278.834 251.909 264.805 260.368 274.669 260.617C284.533 260.866 331.003 260.617 331.003 260.617C331.003 260.617 339.99 260.617 325.742 251.66L322.893 230.015L281.684 231.259Z" fill="#2F2E41"/>
<path opacity="0.1" d="M272.685 260.393C274.925 258.131 278.834 255.773 278.834 255.773L281.684 235.123L322.893 235.167L325.742 255.524C329.065 257.613 331.123 259.214 332.327 260.442C334.157 259.969 336.157 258.207 325.742 251.66L322.893 230.015L281.684 231.259L278.834 251.909C278.834 251.909 267.046 259.018 272.685 260.393Z" fill="black"/>
<path d="M388.215 87.4548H215.61C212.005 87.4548 209.082 90.7721 209.082 94.8641V226.838C209.082 230.93 212.005 234.248 215.61 234.248H388.215C391.82 234.248 394.743 230.93 394.743 226.838V94.8641C394.743 90.7721 391.82 87.4548 388.215 87.4548Z" fill="#2F2E41"/>
<path d="M388.652 95.1643H215.486V205.135H388.652V95.1643Z" fill="#3F3D56"/>
<path d="M302.069 92.925C302.674 92.925 303.165 92.3681 303.165 91.681C303.165 90.994 302.674 90.437 302.069 90.437C301.463 90.437 300.973 90.994 300.973 91.681C300.973 92.3681 301.463 92.925 302.069 92.925Z" fill="#F2F2F2"/>
<path d="M394.899 213.843V226.711C394.899 227.684 394.73 228.647 394.402 229.546C394.074 230.445 393.594 231.262 392.987 231.95C392.381 232.638 391.662 233.184 390.87 233.556C390.077 233.929 389.229 234.12 388.371 234.12H215.766C214.909 234.12 214.06 233.929 213.268 233.556C212.476 233.184 211.756 232.638 211.15 231.95C210.544 231.262 210.063 230.445 209.735 229.546C209.407 228.647 209.238 227.684 209.238 226.711V213.843H394.899Z" fill="#2F2E41"/>
<path d="M350.512 274.053V276.541H232.583V274.55L232.745 274.053L235.652 265.096H348.1L350.512 274.053Z" fill="#2F2E41"/>
<path d="M395.894 271.617C395.679 272.659 394.868 273.759 393.036 274.799C386.46 278.531 373.089 273.804 373.089 273.804C373.089 273.804 362.787 271.813 362.787 266.588C363.076 266.364 363.378 266.16 363.69 265.979C366.454 264.319 375.621 260.222 391.875 266.152C393.073 266.579 394.142 267.375 394.965 268.45C395.623 269.326 396.14 270.436 395.894 271.617Z" fill="#2F2E41"/>
<path opacity="0.1" d="M395.895 271.617C387.846 275.117 380.671 275.379 373.308 269.574C369.595 266.648 366.222 265.924 363.69 265.979C366.455 264.319 375.621 260.222 391.875 266.152C393.073 266.579 394.142 267.375 394.965 268.45C395.624 269.326 396.14 270.436 395.895 271.617Z" fill="black"/>
<path d="M385.803 269.574C387.376 269.574 388.652 269.129 388.652 268.579C388.652 268.03 387.376 267.584 385.803 267.584C384.229 267.584 382.953 268.03 382.953 268.579C382.953 269.129 384.229 269.574 385.803 269.574Z" fill="#F2F2F2"/>
<path d="M302.069 228.771C304.369 228.771 306.234 226.654 306.234 224.044C306.234 221.433 304.369 219.316 302.069 219.316C299.769 219.316 297.904 221.433 297.904 224.044C297.904 226.654 299.769 228.771 302.069 228.771Z" fill="#F2F2F2"/>
<path opacity="0.1" d="M350.512 274.053V276.541H232.583V274.55L232.745 274.053H350.512Z" fill="black"/>
<path d="M114.528 65.2832H39.2876V164.645H114.528V65.2832Z" fill="#2F2E41"/>
<path d="M122.124 55.4292H31.6909V90.7396H122.124V55.4292Z" fill="#3F3D56"/>
<path d="M122.124 97.3091H31.6909V132.62H122.124V97.3091Z" fill="#3F3D56"/>
<path d="M122.124 139.189H31.6909V174.499H122.124V139.189Z" fill="#3F3D56"/>
<path opacity="0.4" d="M104.038 61.5879H98.25V68.1573H104.038V61.5879Z" fill="#9966FF"/>
<path opacity="0.8" d="M112.358 61.5879H106.57V68.1573H112.358V61.5879Z" fill="#9966FF"/>
<path d="M120.677 61.5879H114.89V68.1573H120.677V61.5879Z" fill="#9966FF"/>
<path opacity="0.4" d="M104.038 103.057H98.25V109.627H104.038V103.057Z" fill="#9966FF"/>
<path opacity="0.8" d="M112.358 103.057H106.57V109.627H112.358V103.057Z" fill="#9966FF"/>
<path d="M120.677 103.057H114.89V109.627H120.677V103.057Z" fill="#9966FF"/>
<path opacity="0.4" d="M104.038 144.526H98.25V151.096H104.038V144.526Z" fill="#9966FF"/>
<path opacity="0.8" d="M112.358 144.526H106.57V151.096H112.358V144.526Z" fill="#9966FF"/>
<path d="M120.677 144.526H114.89V151.096H120.677V144.526Z" fill="#9966FF"/>
<path d="M114.528 253.332C130.311 253.332 143.105 238.81 143.105 220.896C143.105 202.981 130.311 188.459 114.528 188.459C98.7455 188.459 85.9512 202.981 85.9512 220.896C85.9512 238.81 98.7455 253.332 114.528 253.332Z" fill="#2F2E41"/>
<path d="M110.187 246.352H101.506V264.007H110.187V246.352Z" fill="#2F2E41"/>
<path d="M127.55 246.352H118.869V264.007H127.55V246.352Z" fill="#2F2E41"/>
<path d="M108.741 267.292C112.736 267.292 115.975 265.913 115.975 264.212C115.975 262.512 112.736 261.133 108.741 261.133C104.745 261.133 101.506 262.512 101.506 264.212C101.506 265.913 104.745 267.292 108.741 267.292Z" fill="#2F2E41"/>
<path d="M126.103 266.881C130.099 266.881 133.338 265.503 133.338 263.802C133.338 262.101 130.099 260.723 126.103 260.723C122.108 260.723 118.869 262.101 118.869 263.802C118.869 265.503 122.108 266.881 126.103 266.881Z" fill="#2F2E41"/>
<path d="M115.252 223.77C120.646 223.77 125.018 218.807 125.018 212.684C125.018 206.561 120.646 201.598 115.252 201.598C109.858 201.598 105.485 206.561 105.485 212.684C105.485 218.807 109.858 223.77 115.252 223.77Z" fill="white"/>
<path d="M115.252 216.379C117.05 216.379 118.507 214.725 118.507 212.684C118.507 210.643 117.05 208.989 115.252 208.989C113.454 208.989 111.996 210.643 111.996 212.684C111.996 214.725 113.454 216.379 115.252 216.379Z" fill="#3F3D56"/>
<path d="M86.8072 190.731C84.4998 179.001 91.8758 167.149 103.282 164.258C114.688 161.367 125.805 168.533 128.113 180.262C130.42 191.991 122.861 196.318 111.455 199.208C100.049 202.099 89.1147 202.46 86.8072 190.731Z" fill="#9966FF"/>
<path d="M141.33 214.426C148.585 210.902 153.676 205.949 152.701 203.364C151.727 200.779 145.055 201.54 137.8 205.065C130.546 208.589 125.455 213.542 126.43 216.127C127.404 218.712 134.076 217.951 141.33 214.426Z" fill="#2F2E41"/>
<path d="M87.7938 236.187C95.0485 232.663 100.139 227.71 99.1647 225.125C98.1899 222.54 91.5185 223.302 84.2638 226.826C77.0091 230.35 71.9181 235.303 72.8929 237.888C73.8677 240.473 80.539 239.712 87.7938 236.187Z" fill="#2F2E41"/>
<path d="M131.168 230.339C131.168 233.514 123.966 239.782 115.975 239.782C107.984 239.782 100.42 233.924 100.42 230.75C100.42 227.575 107.984 228.286 115.975 228.286C123.966 228.286 131.168 227.164 131.168 230.339Z" fill="white"/>
</g>
<defs>
<clipPath id="clip0_123_896">
<rect width="405" height="287" fill="white"/>
</clipPath>
</defs>
</svg>
