<svg width="49" height="37" viewBox="0 0 49 37" fill="none" xmlns="http://www.w3.org/2000/svg">
<path d="M22.9879 1.87888C19.4086 2.60154 16.6524 4.48044 14.834 7.41443C14.011 8.71521 13.6473 9.79919 13.3793 11.5769C13.0539 13.8172 13.7813 16.3754 15.7145 19.7863C17.2074 22.4023 20.3656 26.7527 22.4328 29.0218C22.7582 29.3687 22.9688 29.6578 22.9305 29.6867C22.9114 29.7011 22.1457 29.8023 21.2461 29.889C19.4086 30.0769 17.8199 30.5972 17.3223 31.1609C16.8629 31.6957 16.8821 32.7218 17.3606 33.2133C18.4133 34.2972 20.7293 34.7308 25.5528 34.7453C31.716 34.7597 34.2617 33.9793 34.2617 32.1004C34.2617 30.973 32.7688 30.207 29.9168 29.889C29.0938 29.8023 28.3856 29.7011 28.3664 29.6867C28.3281 29.6722 28.8449 28.9785 29.5149 28.1547C33.9555 22.7926 36.7117 18.3121 37.5922 15.0023C39.0852 9.45232 35.1996 3.62771 28.9024 2.02341C27.1223 1.56091 24.8063 1.5031 22.9879 1.87888ZM27.9262 3.1074C29.7637 3.46873 31.027 4.04685 32.6348 5.27537C34.3383 6.54724 35.4676 8.05037 36.0992 9.8281C36.616 11.2734 36.5778 14.034 36.0227 15.5804C34.8168 18.9336 31.7352 23.573 27.4285 28.5449C26.5098 29.6144 25.6867 30.4961 25.6293 30.4961C25.4571 30.4961 23.0836 27.7644 21.3035 25.5242C18.241 21.6652 16.1356 18.182 15.2168 15.5371C13.0731 9.30779 18.241 2.93396 25.4571 2.90505C26.2418 2.8906 27.352 2.99177 27.9262 3.1074ZM24.5192 31.3922C25.3996 32.3605 25.8399 32.375 26.6055 31.4355C27.1031 30.8429 27.4285 30.814 29.8785 31.1609C34.2235 31.7824 33.8024 32.8953 29.0364 33.3867C23.3516 33.9504 16.4992 32.8519 18.8153 31.739C19.5043 31.3922 21.8203 31.0019 23.3899 30.9441C23.9832 30.9297 24.1555 31.0019 24.5192 31.3922Z" fill="#5B4CE2"/>
<path d="M22.2031 9.79919C18.9301 10.7676 18.9492 10.7531 18.9492 11.1867C18.9492 11.6203 19.1406 11.7359 20.6336 12.1551L21.8203 12.5019V13.9039C21.8203 15.4648 21.9352 15.6383 23.3898 16.2019C24.9402 16.809 26.5289 16.7078 28.1941 15.8984L29.0938 15.4648V13.9617C29.0938 12.4441 29.1703 12.2851 29.8785 12.2851C30.1656 12.2851 30.0699 13.3258 29.7445 13.6004C29.4766 13.8172 29.4766 13.9039 29.7063 14.2652C29.9168 14.5976 30.0891 14.6699 30.625 14.6699C31.1227 14.6699 31.3332 14.5832 31.5246 14.323C31.6777 14.0918 31.6969 13.875 31.5629 13.716C31.2758 13.2969 31.3523 11.9094 31.6777 11.707C32.0223 11.4902 32.0605 10.9265 31.7352 10.7386C31.3332 10.5074 25.7633 8.96091 25.3422 8.97537C25.1508 8.97537 23.7344 9.35115 22.2031 9.79919ZM28.7109 11.1433C28.7109 11.1867 27.9645 11.4324 27.0457 11.6926L25.3805 12.1406L23.7918 11.6926C22.9113 11.4324 22.2031 11.1867 22.2031 11.1433C22.2031 11.0855 22.9113 10.8543 23.7918 10.6086L25.3613 10.175L27.0266 10.6086C27.9645 10.8543 28.7109 11.1 28.7109 11.1433ZM24.6148 13.2679C25.3805 13.4847 25.4762 13.4703 26.4906 13.1812L27.5625 12.8777V13.8605V14.8578L26.7969 15.089C25.7824 15.3926 24.9785 15.3781 23.9832 15.0312L23.1602 14.7566V13.7883C23.1602 12.9355 23.1984 12.8488 23.5047 12.9355C23.677 12.9933 24.1938 13.1379 24.6148 13.2679Z" fill="#5B4CE2"/>
</svg>
