<svg width="24" height="23" viewBox="0 0 24 23" fill="none" xmlns="http://www.w3.org/2000/svg">
<path d="M19.3087 15.2873L23.7469 17.9041C22.3065 19.7805 18.8613 23 12.9049 23C5.50834 23 0 17.9386 0 11.4999C0 4.64825 5.56677 0 12.2821 0C19.0363 0 22.3452 4.75133 23.416 7.31644L24 8.62497L6.59851 14.9946C7.92209 17.3016 9.98557 18.4722 12.9049 18.4722C15.8248 18.4722 17.8489 17.1983 19.3087 15.2873ZM5.66426 11.1387L17.2846 6.86902C16.6422 5.44028 14.735 4.42468 12.4571 4.42468C9.55719 4.42468 5.52803 6.69713 5.66426 11.1387Z" fill="#FF302F"/>
</svg>
