<svg width="72" height="72" viewBox="0 0 72 72" fill="none" xmlns="http://www.w3.org/2000/svg">
<path d="M36 72C55.8823 72 72 55.8823 72 36C72 16.1177 55.8823 0 36 0C16.1177 0 0 16.1177 0 36C0 55.8823 16.1177 72 36 72Z" fill="#E9573E"/>
<path fill-rule="evenodd" clip-rule="evenodd" d="M27.0933 45.0645L45.6258 45.238V49.452L53.7835 53.3421L35.5073 70.4906L19.8245 52.6187L27.0933 49.5243V45.0645Z" fill="#F9DCA4"/>
<path fill-rule="evenodd" clip-rule="evenodd" d="M62.3047 60.5747C58.9408 64.1848 54.8688 67.0626 50.3429 69.0284C45.8171 70.9943 40.9345 72.006 36.0001 72.0004C34.5058 72.0003 33.0128 71.9081 31.5298 71.7243C26.9816 71.0725 22.5811 69.636 18.5244 67.4788C15.1006 65.5733 12.0095 63.1239 9.3717 60.2264L10.8665 56.6147L24.0642 50.7266C25.0836 56.0112 28.9982 64.1654 35.9197 68.7872C39.157 66.832 41.9665 64.2437 44.18 61.1773C46.3935 58.1108 47.9654 54.6292 48.8017 50.9409L60.5256 56.6532L62.3047 60.5747Z" fill="#677079"/>
<path opacity="0.11" fill-rule="evenodd" clip-rule="evenodd" d="M46.3586 49.7998C47.2067 50.2041 48.6572 50.881 48.7982 50.9637C46.4331 58.3827 30.4836 61.0996 25.7814 50.0829L46.3586 49.7998Z" fill="black"/>
<path fill-rule="evenodd" clip-rule="evenodd" d="M36.2669 9.82324C61.0604 9.82324 51.3975 50.91 36.2669 50.91C21.9764 50.91 11.4735 9.82324 36.2669 9.82324Z" fill="#FFE8BE"/>
<path fill-rule="evenodd" clip-rule="evenodd" d="M21.3962 28.0137C17.8195 29.5748 20.8602 36.9694 23.1111 36.9356C22.1776 34.0428 21.6017 31.0465 21.3962 28.0137Z" fill="#F9DCA4"/>
<path fill-rule="evenodd" clip-rule="evenodd" d="M51.4254 28.0137C55.0021 29.5737 51.9613 36.9694 49.7116 36.9356C50.6445 34.0427 51.2201 31.0464 51.4254 28.0137Z" fill="#F9DCA4"/>
<path fill-rule="evenodd" clip-rule="evenodd" d="M27.2576 17.9847C26.5679 21.2096 26.8102 24.4158 23.7531 25.0076C23.0261 25.1474 22.5449 26.1319 22.3877 26.9999C22.0331 28.8932 21.8847 30.8194 21.9449 32.7448C22.0661 33.4077 21.4836 31.4725 21.4836 31.4725L21.3845 27.7746C21.3845 27.7746 21.3414 27.0663 21.3578 25.9863C21.3927 23.796 21.642 20.2449 22.7512 19.1591C24.4067 17.5396 27.2576 17.9847 27.2576 17.9847Z" fill="#AD835F"/>
<path fill-rule="evenodd" clip-rule="evenodd" d="M45.5477 17.9847C46.2374 21.2096 45.9963 24.4158 49.0522 25.0076C49.7792 25.1474 50.2615 26.1319 50.4176 26.9999C50.7575 28.901 50.8794 30.8346 50.7811 32.7634C50.6588 33.4275 51.2413 31.4912 51.2413 31.4912L51.4347 27.7886C51.4347 27.7886 51.4639 27.0663 51.4464 25.9863C51.4138 23.796 51.1644 20.2449 50.0542 19.1591C48.3986 17.5396 45.5477 17.9847 45.5477 17.9847Z" fill="#AD835F"/>
<path fill-rule="evenodd" clip-rule="evenodd" d="M29.5504 54.1484C27.7912 52.4509 26.3838 51.1344 25.1069 49.8168C23.47 48.1263 22.9154 46.4125 22.5974 43.4113C21.8755 38.2252 21.4697 33 21.3822 27.7646C21.3822 27.7646 22.5869 35.1429 24.8331 38.7802C25.9865 40.6478 30.7049 36.2579 32.5865 35.5903C33.2263 35.2943 33.9473 35.2232 34.6325 35.3886C35.3178 35.554 35.927 35.9461 36.3613 36.5014C36.7876 35.9452 37.3914 35.5516 38.0723 35.3859C38.7532 35.2201 39.4703 35.2923 40.1046 35.5903C41.9873 36.2579 46.6405 40.0082 47.8592 38.7802C50.7893 35.8256 51.4207 27.7751 51.4207 27.7751C51.2983 33.0689 50.8591 38.3506 50.1054 43.5919C49.6825 46.7911 49.4681 48.0307 48.3741 49.282C46.7684 51.0855 44.9846 52.7222 43.0498 54.1671C42.0852 54.9313 40.4087 55.649 36.1376 55.6234C32.1694 55.6001 30.5418 55.1049 29.5504 54.1484Z" fill="#60350A"/>
<path fill-rule="evenodd" clip-rule="evenodd" d="M46.1408 18.6377C46.7586 18.5181 47.3983 18.591 47.9734 18.8467C48.5484 19.1023 49.0312 19.5284 49.3563 20.0672C51.1691 23.1115 51.3194 23.5041 51.3194 23.5041C51.3194 23.5041 51.105 18.0587 50.9757 17.4109C51.1316 17.2674 51.3374 17.1904 51.5492 17.1965C51.7609 17.2026 51.962 17.2913 52.1093 17.4435C52.2375 17.7021 51.592 11.9678 48.2239 10.868C46.9924 7.37047 42.6852 4.77939 42.6852 4.77939L42.4906 6.7227C42.0569 5.40343 41.2436 4.24149 40.1524 3.38245C39.0613 2.52341 37.7409 2.00548 36.3566 1.89355C37.1337 2.76851 36.9473 3.40812 36.9473 3.40812C35.7351 2.90028 34.4307 2.64956 33.1166 2.67181C33.2797 3.70754 32.0809 4.80968 32.0809 4.80968C32.0809 4.80968 31.3364 3.67492 28.3889 3.28696C27.8704 5.16502 26.8976 5.48891 25.9597 6.36386C25.1718 7.17081 24.4469 8.03705 23.7916 8.95494C23.7916 8.95494 23.8883 7.14095 24.536 6.6225C24.7795 6.46172 19.0416 8.72309 21.9123 17.1499C21.3981 17.1374 20.8946 17.2988 20.4834 17.6079C20.0722 17.917 19.7772 18.3557 19.6463 18.8532C21.2657 19.3064 20.5958 21.7542 21.5022 23.341C22.1395 21.5002 22.5613 17.9142 26.5446 18.8532C29.3966 19.5255 32.1345 20.9666 35.4223 21.082C40.0673 21.2439 41.8312 18.8055 46.1408 18.6377Z" fill="#60350A"/>
<path fill-rule="evenodd" clip-rule="evenodd" d="M37.7652 44.9636C38.2191 45.0397 38.684 45.0179 39.1289 44.8998C39.5737 44.7816 39.9882 44.5698 40.3446 44.2786C41.1834 43.3116 41.8673 41.938 40.5951 41.1993C39.3532 40.3174 37.9262 39.7308 36.423 39.4844C34.9109 39.7267 33.4744 40.3126 32.2242 41.197C30.663 42.0999 31.6183 43.3116 32.4584 44.2786C32.8147 44.5698 33.2292 44.7816 33.674 44.8998C34.1189 45.0179 34.5838 45.0397 35.0378 44.9636C34.0929 41.6735 38.7112 41.6735 37.7652 44.9636Z" fill="#FFE8BE"/>
</svg>
