<svg width="20" height="100" viewBox="0 0 20 100" fill="none" xmlns="http://www.w3.org/2000/svg">
<path d="M10 2.02539C8.39303 2.02539 6.82214 2.54019 5.486 3.50468C4.14985 4.46917 3.10844 5.84003 2.49348 7.44392C1.87852 9.04781 1.71762 10.8127 2.03112 12.5154C2.34463 14.218 3.11846 15.7821 4.25476 17.0096C5.39106 18.2372 6.8388 19.0732 8.4149 19.4118C9.99099 19.7505 11.6247 19.5767 13.1093 18.9124C14.594 18.248 15.8629 17.123 16.7557 15.6795C17.6485 14.236 18.125 12.539 18.125 10.8029C18.1227 8.47575 17.266 6.24457 15.7427 4.59899C14.2195 2.95341 12.1542 2.02785 10 2.02539ZM12.9422 13.026C13.0003 13.0888 13.0463 13.1632 13.0777 13.2452C13.1092 13.3272 13.1254 13.415 13.1254 13.5037C13.1254 13.5925 13.1092 13.6803 13.0777 13.7623C13.0463 13.8442 13.0003 13.9187 12.9422 13.9814C12.8841 14.0442 12.8152 14.0939 12.7393 14.1279C12.6634 14.1618 12.5821 14.1793 12.5 14.1793C12.4179 14.1793 12.3366 14.1618 12.2607 14.1279C12.1848 14.0939 12.1159 14.0442 12.0578 13.9814L10 11.7575L7.94219 13.9814C7.88412 14.0442 7.81518 14.0939 7.73931 14.1279C7.66344 14.1618 7.58213 14.1793 7.5 14.1793C7.41788 14.1793 7.33656 14.1618 7.26069 14.1279C7.18482 14.0939 7.11588 14.0442 7.05782 13.9814C6.99975 13.9187 6.95368 13.8442 6.92226 13.7623C6.89083 13.6803 6.87466 13.5925 6.87466 13.5037C6.87466 13.415 6.89083 13.3272 6.92226 13.2452C6.95368 13.1632 6.99975 13.0888 7.05782 13.026L9.11641 10.8029L7.05782 8.57986C6.94054 8.45317 6.87466 8.28133 6.87466 8.10216C6.87466 7.92299 6.94054 7.75115 7.05782 7.62446C7.17509 7.49777 7.33415 7.42659 7.5 7.42659C7.66586 7.42659 7.82492 7.49777 7.94219 7.62446L10 9.84839L12.0578 7.62446C12.1159 7.56173 12.1848 7.51196 12.2607 7.47801C12.3366 7.44406 12.4179 7.42659 12.5 7.42659C12.5821 7.42659 12.6634 7.44406 12.7393 7.47801C12.8152 7.51196 12.8841 7.56173 12.9422 7.62446C13.0003 7.68719 13.0463 7.76167 13.0777 7.84363C13.1092 7.9256 13.1254 8.01344 13.1254 8.10216C13.1254 8.19088 13.1092 8.27873 13.0777 8.36069C13.0463 8.44266 13.0003 8.51713 12.9422 8.57986L10.8836 10.8029L12.9422 13.026Z" fill="#585353" fill-opacity="0.9"/>
<path d="M10 80.0254C8.39303 80.0254 6.82214 80.5402 5.486 81.5047C4.14985 82.4692 3.10844 83.84 2.49348 85.4439C1.87852 87.0478 1.71762 88.8127 2.03112 90.5154C2.34463 92.218 3.11846 93.7821 4.25476 95.0096C5.39106 96.2372 6.8388 97.0732 8.4149 97.4118C9.99099 97.7505 11.6247 97.5767 13.1093 96.9124C14.594 96.248 15.8629 95.123 16.7557 93.6795C17.6485 92.236 18.125 90.539 18.125 88.8029C18.1227 86.4757 17.266 84.2446 15.7427 82.599C14.2195 80.9534 12.1542 80.0278 10 80.0254ZM12.9422 91.026C13.0003 91.0888 13.0463 91.1632 13.0777 91.2452C13.1092 91.3272 13.1254 91.415 13.1254 91.5037C13.1254 91.5925 13.1092 91.6803 13.0777 91.7623C13.0463 91.8442 13.0003 91.9187 12.9422 91.9814C12.8841 92.0442 12.8152 92.0939 12.7393 92.1279C12.6634 92.1618 12.5821 92.1793 12.5 92.1793C12.4179 92.1793 12.3366 92.1618 12.2607 92.1279C12.1848 92.0939 12.1159 92.0442 12.0578 91.9814L10 89.7575L7.94219 91.9814C7.88412 92.0442 7.81518 92.0939 7.73931 92.1279C7.66344 92.1618 7.58213 92.1793 7.5 92.1793C7.41788 92.1793 7.33656 92.1618 7.26069 92.1279C7.18482 92.0939 7.11588 92.0442 7.05782 91.9814C6.99975 91.9187 6.95368 91.8442 6.92226 91.7623C6.89083 91.6803 6.87466 91.5925 6.87466 91.5037C6.87466 91.415 6.89083 91.3272 6.92226 91.2452C6.95368 91.1632 6.99975 91.0888 7.05782 91.026L9.11641 88.8029L7.05782 86.5799C6.94054 86.4532 6.87466 86.2813 6.87466 86.1022C6.87466 85.923 6.94054 85.7512 7.05782 85.6245C7.17509 85.4978 7.33415 85.4266 7.5 85.4266C7.66586 85.4266 7.82492 85.4978 7.94219 85.6245L10 87.8484L12.0578 85.6245C12.1159 85.5617 12.1848 85.512 12.2607 85.478C12.3366 85.4441 12.4179 85.4266 12.5 85.4266C12.5821 85.4266 12.6634 85.4441 12.7393 85.478C12.8152 85.512 12.8841 85.5617 12.9422 85.6245C13.0003 85.6872 13.0463 85.7617 13.0777 85.8436C13.1092 85.9256 13.1254 86.0134 13.1254 86.1022C13.1254 86.1909 13.1092 86.2787 13.0777 86.3607C13.0463 86.4427 13.0003 86.5171 12.9422 86.5799L10.8836 88.8029L12.9422 91.026Z" fill="#585353" fill-opacity="0.9"/>
</svg>
