<svg width="53" height="48" viewBox="0 0 53 48" fill="none" xmlns="http://www.w3.org/2000/svg">
<path d="M8.6125 0C6.32832 0 4.1377 1.02261 2.52254 2.84287C0.907385 4.66312 0 7.13192 0 9.70615V38.078C0 40.6522 0.907385 43.121 2.52254 44.9413C4.1377 46.7615 6.32832 47.7841 8.6125 47.7841H44.3875C45.5185 47.7841 46.6384 47.5331 47.6834 47.0453C48.7283 46.5575 49.6777 45.8426 50.4775 44.9413C51.2772 44.04 51.9116 42.97 52.3444 41.7924C52.7772 40.6148 53 39.3526 53 38.078V9.70615C53 8.43152 52.7772 7.16937 52.3444 5.99177C51.9116 4.81416 51.2772 3.74417 50.4775 2.84287C49.6777 1.94157 48.7283 1.22662 47.6834 0.738837C46.6384 0.251058 45.5185 0 44.3875 0H8.6125Z" fill="white"/>
</svg>
