<svg width="26" height="26" viewBox="0 0 26 26" fill="none" xmlns="http://www.w3.org/2000/svg">
<g clip-path="url(#clip0_137_433)">
<path d="M9.12399 5.3883C8.46665 5.98289 7.96577 6.73174 7.66223 7.57371C7.3587 8.41568 7.26113 9.32691 7.37748 10.233C7.49383 11.139 7.8208 12.0143 8.33171 12.7872C8.84261 13.5601 9.52296 14.2089 10.3172 14.6804L10.151 20.5268C10.1489 20.6023 10.1616 20.6781 10.1885 20.7499C10.2154 20.8218 10.2559 20.8882 10.3077 20.9455L12.2766 23.1263C12.3811 23.242 12.5252 23.3133 12.6772 23.3245C12.8292 23.3358 12.9767 23.286 13.0873 23.1862L15.1714 21.3046C15.2819 21.2048 15.3465 21.0631 15.3508 20.9107C15.3551 20.7584 15.2988 20.6078 15.1944 20.4921L14.4068 19.6197L15.2405 18.8671C15.351 18.7673 15.4155 18.6256 15.4199 18.4732C15.4242 18.3209 15.3679 18.1703 15.2635 18.0546L14.4759 17.1822L15.3096 16.4296C15.3643 16.3802 15.4084 16.32 15.4393 16.2524C15.4701 16.1849 15.4871 16.1112 15.4893 16.0358L15.5163 15.0643C16.2649 14.7417 16.9276 14.2566 17.4588 13.6425C17.9901 13.0283 18.3771 12.2997 18.5934 11.5067C18.8097 10.7137 18.8501 9.87529 18.7118 9.04909C18.5734 8.22288 18.2597 7.42856 17.7921 6.72081C17.3245 6.01306 16.7143 5.40869 16.0033 4.94932C15.2923 4.48996 14.4976 4.18651 13.6738 4.05986C12.85 3.93322 12.0166 3.9864 11.2312 4.21573C10.4457 4.44506 9.72685 4.8451 9.12399 5.3883ZM13.9071 8.59116C13.7422 8.74001 13.5348 8.83437 13.3112 8.86228C13.0876 8.8902 12.8577 8.85043 12.6507 8.74799C12.4437 8.64556 12.2688 8.48506 12.1482 8.2868C12.0276 8.08854 11.9667 7.86142 11.9731 7.63416C11.9796 7.4069 12.0531 7.18971 12.1844 7.01005C12.3157 6.83039 12.4989 6.69633 12.7109 6.62483C12.9228 6.55333 13.154 6.5476 13.3751 6.60835C13.5962 6.66911 13.7974 6.79362 13.9531 6.96616C14.162 7.19752 14.2745 7.4987 14.2659 7.80345C14.2573 8.1082 14.1282 8.39154 13.9071 8.59116Z" fill="black"/>
</g>
<defs>
<clipPath id="clip0_137_433">
<rect width="17.5512" height="18.3661" fill="white" transform="translate(0 12.0424) scale(1.02387) rotate(-42.0768)"/>
</clipPath>
</defs>
</svg>
