<svg width="35" height="29" viewBox="0 0 35 29" fill="none" xmlns="http://www.w3.org/2000/svg">
<path d="M29.5313 25.375C29.3876 25.3752 29.2453 25.3518 29.1126 25.3062C28.9799 25.2606 28.8594 25.1937 28.7581 25.1094L4.69561 5.17185C4.49915 5.00051 4.39124 4.77237 4.3949 4.53605C4.39855 4.29974 4.51347 4.07395 4.71516 3.90684C4.91685 3.73972 5.18935 3.6445 5.47455 3.64148C5.75976 3.63845 6.03511 3.72786 6.2419 3.89064L30.3044 23.8281C30.4573 23.9549 30.5613 24.1163 30.6035 24.2921C30.6457 24.4678 30.624 24.65 30.5413 24.8155C30.4585 24.981 30.3184 25.1225 30.1386 25.2221C29.9589 25.3217 29.7475 25.3749 29.5313 25.375ZM17.4768 21.75C14.6405 21.75 11.9055 21.0545 9.34747 19.6826C7.01846 18.4365 4.92188 16.6518 3.28399 14.5283V14.5238C4.64708 12.9056 6.14004 11.5371 7.74376 10.4338C7.75826 10.4237 7.7701 10.4113 7.77851 10.3973C7.78692 10.3832 7.79173 10.3679 7.79263 10.3522C7.79353 10.3366 7.7905 10.321 7.78373 10.3063C7.77697 10.2917 7.76661 10.2784 7.75333 10.2672L6.39161 9.14066C6.36741 9.12045 6.33491 9.10852 6.30058 9.10726C6.26625 9.106 6.23261 9.1155 6.20635 9.13386C4.50284 10.3233 2.92168 11.7824 1.48409 13.4907C1.23675 13.7848 1.10054 14.1332 1.09275 14.4917C1.08496 14.8501 1.20594 15.2023 1.44034 15.5037C3.24571 17.8446 5.56924 19.8163 8.1587 21.2045C11.0742 22.7695 14.2119 23.5625 17.4768 23.5625C19.239 23.558 20.9888 23.3173 22.6584 22.85C22.6804 22.8438 22.7002 22.833 22.7158 22.8187C22.7314 22.8045 22.7424 22.7871 22.7477 22.7683C22.7529 22.7496 22.7523 22.73 22.7459 22.7115C22.7395 22.693 22.7275 22.6761 22.711 22.6625L21.2358 21.4402C21.2019 21.4127 21.1599 21.3931 21.114 21.3831C21.0681 21.3732 21.0199 21.3733 20.974 21.3835C19.8316 21.6273 18.6565 21.7504 17.4768 21.75ZM33.5535 13.5145C31.7447 11.1967 29.398 9.22789 26.7675 7.82037C23.8574 6.26162 20.6445 5.4375 17.4768 5.4375C15.7332 5.44006 14.0025 5.68572 12.3573 6.1642C12.3354 6.17052 12.3158 6.18136 12.3003 6.19569C12.2849 6.21003 12.2741 6.2274 12.2689 6.24615C12.2638 6.26491 12.2645 6.28443 12.271 6.3029C12.2775 6.32136 12.2896 6.33815 12.3061 6.35168L13.7792 7.57228C13.8135 7.60021 13.8561 7.62016 13.9026 7.6301C13.9492 7.64005 13.9981 7.63964 14.0444 7.62892C15.1635 7.37811 16.3175 7.2507 17.4768 7.25C20.2583 7.25 22.9852 7.95404 25.5808 9.3457C27.9535 10.6144 30.0747 12.3975 31.7167 14.5C31.7179 14.5013 31.7186 14.5029 31.7186 14.5045C31.7186 14.5062 31.7179 14.5078 31.7167 14.5091C30.5248 16.0638 29.0457 17.4539 27.3335 18.6285C27.3188 18.6385 27.3069 18.651 27.2983 18.665C27.2898 18.6791 27.2849 18.6945 27.2839 18.7102C27.2829 18.7259 27.2859 18.7416 27.2927 18.7563C27.2995 18.7711 27.3099 18.7844 27.3232 18.7956L28.6836 19.9222C28.7077 19.9423 28.74 19.9543 28.7742 19.9556C28.8083 19.957 28.8419 19.9477 28.8682 19.9296C30.6961 18.6543 32.2784 17.1553 33.5604 15.4844C33.787 15.19 33.9068 14.8478 33.9056 14.4986C33.9043 14.1494 33.7822 13.8078 33.5535 13.5145Z" fill="#5B4CE2" fill-opacity="0.6"/>
<path d="M17.5 9.0625C17.0084 9.06228 16.5184 9.10788 16.0392 9.19844C16.0149 9.2026 15.9926 9.21213 15.9744 9.226C15.9562 9.23987 15.9429 9.25757 15.9358 9.27722C15.9288 9.29686 15.9284 9.31771 15.9345 9.33755C15.9407 9.35739 15.9532 9.37548 15.9708 9.38988L23.6674 15.7654C23.6848 15.7799 23.7066 15.7903 23.7305 15.7954C23.7545 15.8005 23.7796 15.8001 23.8034 15.7943C23.8271 15.7885 23.8484 15.7775 23.8652 15.7624C23.8819 15.7473 23.8934 15.7288 23.8984 15.7087C24.1176 14.9124 24.1174 14.0854 23.8978 13.2891C23.6783 12.4928 23.2451 11.7478 22.6304 11.1092C22.0157 10.4707 21.2352 9.95514 20.3471 9.60081C19.4589 9.24648 18.4858 9.06248 17.5 9.0625ZM11.3326 13.2346C11.3152 13.2201 11.2934 13.2097 11.2695 13.2046C11.2455 13.1995 11.2203 13.1999 11.1966 13.2057C11.1729 13.2115 11.1516 13.2225 11.1348 13.2376C11.1181 13.2527 11.1066 13.2712 11.1016 13.2913C10.8536 14.1887 10.8848 15.1235 11.192 16.0082C11.4993 16.8929 12.0726 17.6985 12.8582 18.3494C13.6439 19.0004 14.6161 19.4754 15.6838 19.73C16.7516 19.9846 17.8798 20.0104 18.9629 19.805C18.9871 19.8008 19.0095 19.7913 19.0277 19.7774C19.0459 19.7635 19.0592 19.7458 19.0662 19.7262C19.0732 19.7065 19.0737 19.6857 19.0675 19.6658C19.0614 19.646 19.0488 19.6279 19.0312 19.6135L11.3326 13.2346Z" fill="#5B4CE2" fill-opacity="0.6"/>
</svg>
