<svg width="30" height="48" viewBox="0 0 30 48" fill="none" xmlns="http://www.w3.org/2000/svg">
<path d="M16.8516 46.9214C20.8594 40.8871 30 26.2617 30 18.0467C30 8.08342 23.2812 0 15 0C6.71875 0 0 8.08342 0 18.0467C0 26.2617 9.14062 40.8871 13.1484 46.9214C14.1094 48.3595 15.8906 48.3595 16.8516 46.9214ZM15 12.0311C16.3261 12.0311 17.5979 12.6649 18.5355 13.7931C19.4732 14.9212 20 16.4513 20 18.0467C20 19.6421 19.4732 21.1722 18.5355 22.3004C17.5979 23.4285 16.3261 24.0623 15 24.0623C13.6739 24.0623 12.4021 23.4285 11.4645 22.3004C10.5268 21.1722 10 19.6421 10 18.0467C10 16.4513 10.5268 14.9212 11.4645 13.7931C12.4021 12.6649 13.6739 12.0311 15 12.0311Z" fill="#887FE4"/>
</svg>
