<svg width="47" height="41" viewBox="0 0 47 41" fill="none" xmlns="http://www.w3.org/2000/svg">
<g clip-path="url(#clip0_115_173)">
<path fill-rule="evenodd" clip-rule="evenodd" d="M31.3333 23.9167C33.9302 23.9167 36.4208 24.8166 38.2571 26.4185C40.0934 28.0203 41.125 30.1929 41.125 32.4583V35.875C41.125 36.3281 40.9187 36.7626 40.5514 37.083C40.1842 37.4033 39.686 37.5833 39.1667 37.5833C38.6473 37.5833 38.1492 37.4033 37.7819 37.083C37.4147 36.7626 37.2083 36.3281 37.2083 35.875V32.4583C37.2083 31.0991 36.5894 29.7955 35.4876 28.8344C34.3858 27.8733 32.8915 27.3333 31.3333 27.3333H15.6667C14.1085 27.3333 12.6142 27.8733 11.5124 28.8344C10.4106 29.7955 9.79167 31.0991 9.79167 32.4583V35.875C9.79167 36.3281 9.58534 36.7626 9.21808 37.083C8.85082 37.4033 8.35272 37.5833 7.83333 37.5833C7.31395 37.5833 6.81584 37.4033 6.44858 37.083C6.08132 36.7626 5.875 36.3281 5.875 35.875V32.4583C5.875 30.1929 6.90662 28.0203 8.74291 26.4185C10.5792 24.8166 13.0698 23.9167 15.6667 23.9167H31.3333ZM39.1667 13.6667C39.686 13.6667 40.1842 13.8466 40.5514 14.167C40.9187 14.4874 41.125 14.9219 41.125 15.375V17.0833H43.0833C43.6027 17.0833 44.1008 17.2633 44.4681 17.5837C44.8353 17.9041 45.0417 18.3386 45.0417 18.7917C45.0417 19.2447 44.8353 19.6793 44.4681 19.9996C44.1008 20.32 43.6027 20.5 43.0833 20.5H41.125V22.2083C41.125 22.6614 40.9187 23.0959 40.5514 23.4163C40.1842 23.7367 39.686 23.9167 39.1667 23.9167C38.6473 23.9167 38.1492 23.7367 37.7819 23.4163C37.4147 23.0959 37.2083 22.6614 37.2083 22.2083V20.5H35.25C34.7306 20.5 34.2325 20.32 33.8652 19.9996C33.498 19.6793 33.2917 19.2447 33.2917 18.7917C33.2917 18.3386 33.498 17.9041 33.8652 17.5837C34.2325 17.2633 34.7306 17.0833 35.25 17.0833H37.2083V15.375C37.2083 14.9219 37.4147 14.4874 37.7819 14.167C38.1492 13.8466 38.6473 13.6667 39.1667 13.6667ZM23.5 3.41666C26.0969 3.41666 28.5875 4.31659 30.4238 5.91846C32.26 7.52033 33.2917 9.69294 33.2917 11.9583C33.2917 14.2237 32.26 16.3963 30.4238 17.9982C28.5875 19.6001 26.0969 20.5 23.5 20.5C20.9031 20.5 18.4125 19.6001 16.5762 17.9982C14.74 16.3963 13.7083 14.2237 13.7083 11.9583C13.7083 9.69294 14.74 7.52033 16.5762 5.91846C18.4125 4.31659 20.9031 3.41666 23.5 3.41666ZM23.5 6.83333C22.7285 6.83333 21.9645 6.96589 21.2517 7.22345C20.5389 7.481 19.8913 7.85851 19.3457 8.33441C18.8002 8.81031 18.3675 9.37528 18.0722 9.99708C17.777 10.6189 17.625 11.2853 17.625 11.9583C17.625 12.6314 17.777 13.2978 18.0722 13.9196C18.3675 14.5414 18.8002 15.1064 19.3457 15.5823C19.8913 16.0582 20.5389 16.4357 21.2517 16.6932C21.9645 16.9508 22.7285 17.0833 23.5 17.0833C25.0581 17.0833 26.5525 16.5434 27.6543 15.5823C28.756 14.6211 29.375 13.3176 29.375 11.9583C29.375 10.5991 28.756 9.29553 27.6543 8.33441C26.5525 7.37328 25.0581 6.83333 23.5 6.83333Z" fill="#5B4CE2"/>
</g>
<defs>
<clipPath id="clip0_115_173">
<rect width="47" height="41" fill="white"/>
</clipPath>
</defs>
</svg>
