<svg width="68" height="26" viewBox="0 0 68 26" fill="none" xmlns="http://www.w3.org/2000/svg">
<g filter="url(#filter0_d_0_40)">
<path d="M28.8448 13.4307C28.8448 16.2776 26.6088 18.3754 23.8647 18.3754C21.1206 18.3754 18.8846 16.2776 18.8846 13.4307C18.8846 10.5638 21.1206 8.48603 23.8647 8.48603C26.6088 8.48603 28.8448 10.5638 28.8448 13.4307ZM26.6647 13.4307C26.6647 11.6517 25.3688 10.4345 23.8647 10.4345C22.3606 10.4345 21.0646 11.6517 21.0646 13.4307C21.0646 15.1919 22.3606 16.4269 23.8647 16.4269C25.3688 16.4269 26.6647 15.1896 26.6647 13.4307Z" fill="#EA4335"/>
<path d="M39.8848 13.4307C39.8848 16.2776 37.6488 18.3754 34.9047 18.3754C32.1606 18.3754 29.9246 16.2776 29.9246 13.4307C29.9246 10.566 32.1606 8.48603 34.9047 8.48603C37.6488 8.48603 39.8848 10.5638 39.8848 13.4307ZM37.7047 13.4307C37.7047 11.6517 36.4088 10.4345 34.9047 10.4345C33.4006 10.4345 32.1046 11.6517 32.1046 13.4307C32.1046 15.1919 33.4006 16.4269 34.9047 16.4269C36.4088 16.4269 37.7047 15.1896 37.7047 13.4307Z" fill="#FBBC05"/>
<path d="M50.2547 8.78476V17.662C50.2547 21.3136 48.0926 22.8051 45.5365 22.8051C43.1304 22.8051 41.6822 21.2022 41.1361 19.8913L43.0341 19.1044C43.3721 19.9092 44.2002 20.8588 45.5342 20.8588C47.1704 20.8588 48.1843 19.8534 48.1843 17.9607V17.2496H48.1082C47.6203 17.8492 46.6802 18.3731 45.494 18.3731C43.0117 18.3731 40.7377 16.2196 40.7377 13.4485C40.7377 10.6574 43.0117 8.48603 45.494 8.48603C46.678 8.48603 47.6181 9.00993 48.1082 9.59178H48.1843V8.78699H50.2547V8.78476ZM48.3388 13.4485C48.3388 11.7074 47.1726 10.4345 45.6887 10.4345C44.1846 10.4345 42.9244 11.7074 42.9244 13.4485C42.9244 15.1718 44.1846 16.4269 45.6887 16.4269C47.1726 16.4269 48.3388 15.1718 48.3388 13.4485Z" fill="#4285F4"/>
<path d="M54.3007 3.58144V18.0721H52.1744V3.58144H54.3007Z" fill="#34A853"/>
<path d="M63.1963 15.0584L64.8884 16.182C64.3422 16.9868 63.0262 18.3734 60.7521 18.3734C57.9319 18.3734 55.8257 16.202 55.8257 13.4287C55.8257 10.4882 57.9498 8.48407 60.5081 8.48407C63.0843 8.48407 64.3445 10.5261 64.7563 11.6297L64.9824 12.1915L58.346 14.9291C58.8541 15.9211 59.6442 16.4272 60.7521 16.4272C61.8623 16.4272 62.6322 15.8832 63.1963 15.0584ZM57.9879 13.2794L62.4241 11.4446C62.1801 10.8271 61.4459 10.3968 60.582 10.3968C59.474 10.3968 57.9319 11.3711 57.9879 13.2794Z" fill="#EA4335"/>
<path d="M10.8358 12.1445V10.0467H17.9333C18.0027 10.4123 18.0385 10.8448 18.0385 11.313C18.0385 12.8869 17.6065 14.8331 16.2143 16.2197C14.8602 17.6242 13.13 18.3733 10.838 18.3733C6.58985 18.3733 3.01761 14.9267 3.01761 10.6954C3.01761 6.46416 6.58985 3.01761 10.838 3.01761C13.1882 3.01761 14.8624 3.93609 16.1203 5.13325L14.6341 6.61352C13.7321 5.77084 12.51 5.11541 10.8358 5.11541C7.7336 5.11541 5.30733 7.60558 5.30733 10.6954C5.30733 13.7853 7.7336 16.2755 10.8358 16.2755C12.848 16.2755 13.994 15.4707 14.7281 14.7395C15.3235 14.1465 15.7152 13.2993 15.8696 12.1423L10.8358 12.1445Z" fill="#4285F4"/>
</g>
<defs>
<filter id="filter0_d_0_40" x="0" y="0" width="68" height="25.8225" filterUnits="userSpaceOnUse" color-interpolation-filters="sRGB">
<feFlood flood-opacity="0" result="BackgroundImageFix"/>
<feColorMatrix in="SourceAlpha" type="matrix" values="0 0 0 0 0 0 0 0 0 0 0 0 0 0 0 0 0 0 127 0" result="hardAlpha"/>
<feOffset/>
<feGaussianBlur stdDeviation="1.5"/>
<feColorMatrix type="matrix" values="0 0 0 0 1 0 0 0 0 1 0 0 0 0 1 0 0 0 1 0"/>
<feBlend mode="normal" in2="BackgroundImageFix" result="effect1_dropShadow_0_40"/>
<feBlend mode="normal" in="SourceGraphic" in2="effect1_dropShadow_0_40" result="shape"/>
</filter>
</defs>
</svg>
