<svg width="423" height="254" viewBox="0 0 423 254" fill="none" xmlns="http://www.w3.org/2000/svg">
<g clip-path="url(#clip0_123_545)">
<path d="M294.827 121.776C294.827 121.776 277.81 118.376 279.964 125.601C282.118 132.826 296.334 128.151 296.334 128.151L294.827 121.776Z" fill="#FFB8B8"/>
<path d="M331.537 83.6132C331.749 83.4231 332.008 83.2927 332.289 83.2357C332.569 83.1787 332.86 83.1972 333.131 83.2892C333.402 83.3813 333.642 83.5435 333.828 83.7588C334.013 83.9742 334.136 84.2348 334.185 84.5132L334.766 87.8458C334.766 87.8458 337.395 101.176 335.144 109.643C332.893 118.111 331.295 129.265 325.212 130.453C320.006 131.47 300.212 129.86 294.608 129.374C294.205 129.339 293.83 129.154 293.56 128.856C293.29 128.558 293.144 128.17 293.153 127.771L293.258 122.907C293.267 122.523 293.416 122.156 293.679 121.874C293.942 121.592 294.3 121.414 294.686 121.373L317.348 118.989C317.702 118.952 318.034 118.799 318.289 118.556C318.545 118.312 318.711 117.99 318.761 117.643C319.3 113.839 321.043 102.046 322.774 95.8459C324.173 90.8357 328.769 86.1053 331.537 83.6132Z" fill="#575A89"/>
<path d="M423 245.488H266.609V246.223H423V245.488Z" fill="#3F3D56"/>
<path d="M316.811 225.781V235.981L322.627 237.256L326.504 235.344L326.073 227.269L316.811 225.781Z" fill="#FFB8B8"/>
<path d="M351.167 225.781V235.981L356.983 237.256L360.86 235.344L360.429 227.269L351.167 225.781Z" fill="#FFB8B8"/>
<path d="M328.443 142.906C328.443 142.906 320.688 158.418 320.904 170.531C321.033 177.842 320.674 185.154 319.827 192.418L315.95 228.756L328.443 229.394L334.258 190.293L345.459 160.118L349.767 196.031L350.844 232.156H361.613C361.613 232.156 366.567 197.944 363.767 190.293C363.767 190.293 370.229 147.368 365.06 145.243C359.89 143.118 328.443 142.906 328.443 142.906Z" fill="#2F2E41"/>
<path d="M320.689 233.219C320.689 233.219 318.535 225.356 315.519 229.394C312.504 233.431 303.888 240.231 303.888 240.231C303.888 240.231 290.964 247.031 302.811 248.731C314.658 250.431 315.95 246.606 315.95 246.606C315.95 246.606 317.888 245.544 319.612 246.181C321.335 246.819 328.874 246.606 329.304 244.056C329.735 241.506 326.935 227.481 326.073 230.031C325.212 232.581 320.689 233.219 320.689 233.219Z" fill="#2F2E41"/>
<path d="M360.321 233.006C360.321 233.006 360.321 230.669 356.229 230.456C352.136 230.244 351.49 233.006 351.49 233.006C351.49 233.006 350.413 234.069 350.198 237.256C349.982 240.444 350.198 248.731 350.198 248.731C350.198 248.731 348.259 255.106 357.09 253.831C365.921 252.556 362.69 245.969 362.69 245.969L360.321 233.006Z" fill="#2F2E41"/>
<path d="M344.597 63.6425L343.52 75.5426L341.582 80.0051L346.751 87.2302L359.46 75.5426C359.46 75.5426 357.09 69.1675 358.598 65.555L344.597 63.6425Z" fill="#FFB8B8"/>
<path d="M373.46 84.0426L373.361 85.0903L369.583 124.843C369.583 124.843 369.434 126.692 369.159 129.157C368.694 133.326 367.866 139.257 366.783 140.993C365.06 143.756 366.352 146.093 366.352 146.093C356.444 151.831 327.15 143.543 327.15 143.543L333.828 117.193C333.828 117.193 327.797 89.7802 328.443 87.2302C329.089 84.6801 342.659 75.5426 342.659 75.5426L343.059 76.6051C348.843 84.2551 354.721 77.6676 356.444 76.1801L359.89 73.2051L373.46 84.0426Z" fill="#575A89"/>
<path d="M329.165 156.955C308.63 159.703 289.039 160.709 270.912 159.017C264.475 158.373 258.09 157.292 251.804 155.78C240.277 153.088 226.129 153.088 210.584 154.521C201.133 155.352 191.817 157.301 182.838 160.327C170.791 164.441 157.594 164.085 143.603 160.641C137.861 159.166 132.327 156.992 127.129 154.169C116.9 148.747 104.794 150.71 91.6003 156.955V108.464C103.918 103.171 115.918 102.317 127.537 106.778C131.772 108.447 136.152 109.736 140.622 110.629C156.769 113.743 173.437 113 189.234 108.464C210.596 101.323 232.941 103.543 255.57 108.464C280.782 113.717 305.353 114.027 329.165 108.464V156.955Z" fill="#3F3D56"/>
<path d="M156.391 245.488H0V246.223H156.391V245.488Z" fill="#3F3D56"/>
<path d="M193.557 18.3007L205.317 11.6022L198.527 -9.69493e-07L186.767 6.69852L193.557 18.3007Z" fill="#FF6584"/>
<path d="M149.991 76.7107L161.751 70.0121L154.961 58.4099L143.201 65.1085L149.991 76.7107Z" fill="#3F3D56"/>
<path d="M269.518 61.2816L281.278 54.5831L274.488 42.9809L262.728 49.6794L269.518 61.2816Z" fill="#D0CDE1"/>
<path d="M66.5965 155.613L73.7074 188.091L52.1113 235.899L64.7529 241.356L88.9823 186.532L73.4933 138.385L64.2756 140.723L66.5965 155.613Z" fill="#2F2E41"/>
<path d="M60.2756 146.682C60.2756 146.682 62.9093 151.359 68.7033 155.257C74.4973 159.154 86.6121 184.877 86.6121 184.877L73.4439 236.843L91.6161 241.779L101.624 180.72L81.0815 134.99L60.2756 146.682Z" fill="#2F2E41"/>
<path d="M53.6915 234.08C53.6915 234.08 51.0578 236.939 52.1113 239.017C53.1647 241.096 53.6915 246.552 53.6915 246.552H56.0618V240.316L63.6993 247.332C63.6993 247.332 81.3448 248.891 81.0814 247.332C80.8181 245.773 70.5468 242.135 70.5468 242.135L65.5429 234.6L53.6915 234.08Z" fill="#2F2E41"/>
<path d="M76.8677 234.764C76.8677 234.764 74.2341 237.622 75.2876 239.701C76.341 241.779 76.8677 247.236 76.8677 247.236H79.238V241L86.8756 248.015C86.8756 248.015 104.521 249.574 104.258 248.015C103.994 246.456 93.7231 242.819 93.7231 242.819L88.7192 235.284L76.8677 234.764Z" fill="#2F2E41"/>
<path d="M70.5469 75.4895C76.0741 75.4895 80.5548 71.069 80.5548 65.6161C80.5548 60.1631 76.0741 55.7426 70.5469 55.7426C65.0197 55.7426 60.5391 60.1631 60.5391 65.6161C60.5391 71.069 65.0197 75.4895 70.5469 75.4895Z" fill="#A0616A"/>
<path d="M62.3827 66.1357C62.3827 66.1357 61.5926 76.0092 56.5887 79.6468C51.5847 83.2844 51.5847 86.4023 51.5847 86.4023L71.8638 95.4963L67.1233 85.6228C67.1233 85.6228 65.8064 85.1032 67.9133 82.5049C70.0203 79.9066 71.8638 73.6707 71.8638 73.6707L62.3827 66.1357Z" fill="#A0616A"/>
<path d="M83.0568 136.159C77.5773 140.879 71.2289 144.514 64.3575 146.868L59.5775 148.506C59.5775 148.506 49.4699 136.404 54.5739 126.868C55.6224 124.852 57.1219 123.098 58.9589 121.739L58.8536 121.284L56.291 110.255L56.0619 109.267L48.4243 107.448C48.4243 107.448 48.4006 107.456 48.3558 107.467C47.7843 107.615 43.9102 108.316 46.8441 99.3937C48.7959 93.4566 50.211 87.8038 51.008 84.3485C51.1183 83.8659 51.3265 83.4104 51.6199 83.0093C51.9133 82.6082 52.286 82.2698 52.7154 82.0145C53.1449 81.7592 53.6222 81.5922 54.1188 81.5236C54.6154 81.4551 55.1208 81.4863 55.6048 81.6155C58.0505 82.2771 61.0886 83.5336 62.9094 85.8826C66.3331 90.2997 67.0247 85.6873 67.0247 85.6873C67.0247 85.6873 76.6044 96.2758 76.0777 100.953C75.9871 102.207 76.026 103.468 76.1935 104.715V104.72C76.2567 105.276 76.3331 105.856 76.42 106.448C77.0732 110.824 78.3373 115.908 78.8009 117.696C78.8351 117.823 78.8641 117.935 78.8877 118.029C78.9431 118.244 78.9747 118.361 78.9747 118.361L83.0568 136.159Z" fill="#575A89"/>
<path opacity="0.2" d="M69.4934 123.038L67.3865 130.053C67.3865 130.053 59.3064 128.022 54.5738 126.868C55.6223 124.852 57.1218 123.098 58.9588 121.739L58.8534 121.284L56.2909 110.255L56.0618 109.267L48.4242 107.448C48.4242 107.448 48.4005 107.456 48.3557 107.467L47.8975 104.071C47.8975 104.071 61.0657 104.85 61.8558 107.968C62.6459 111.086 61.0657 114.204 60.2756 114.724C59.4855 115.243 60.2756 114.724 61.8558 115.503C63.436 116.283 61.3291 115.503 60.2756 117.062C59.2222 118.621 60.539 117.322 60.8023 118.101C61.0657 118.881 60.8023 117.841 60.539 119.141C60.2756 120.44 61.5924 119.4 61.8558 119.4C62.1192 119.4 69.4934 123.038 69.4934 123.038Z" fill="black"/>
<path d="M67.1231 121.739L84.2418 126.156C84.2418 126.156 93.4596 116.802 98.4635 119.66C103.467 122.518 89.5091 129.014 89.5091 129.014L84.5052 130.053L66.333 127.975L67.1231 121.739Z" fill="#A0616A"/>
<path d="M47.8975 103.031L48.9509 110.826C48.9509 110.826 48.1608 110.826 48.9509 112.645C49.741 114.464 48.9509 118.101 48.9509 118.101C48.9509 118.101 47.3707 118.361 48.6876 119.141C50.0044 119.92 51.3212 121.999 50.7945 122.778C50.2677 123.558 49.2143 124.597 51.5846 125.117C53.9549 125.636 67.3865 129.014 67.3865 129.014L69.4934 121.999C69.4934 121.999 62.1192 118.361 61.8558 118.361C61.5924 118.361 60.2756 119.4 60.539 118.101C60.8023 116.802 61.0657 117.841 60.8023 117.062C60.539 116.282 59.2222 117.582 60.2756 116.023C61.3291 114.464 63.436 115.243 61.8558 114.464C60.2756 113.684 59.4855 114.204 60.2756 113.684C61.0657 113.165 62.6459 110.047 61.8558 106.929C61.0657 103.811 47.8975 103.031 47.8975 103.031Z" fill="#575A89"/>
<path d="M68.239 83.0645L69.0327 81.8196C69.4046 81.2361 69.5264 80.5307 69.3712 79.8586C69.216 79.1866 68.7966 78.6029 68.2052 78.2359L62.1584 74.484C61.567 74.117 60.852 73.9969 60.1708 74.15C59.4896 74.3031 58.8979 74.7169 58.5259 75.3004L57.7323 76.5453C57.2853 76.543 56.8451 76.6532 56.4533 76.8654C56.0614 77.0777 55.7309 77.3849 55.4929 77.7581L53.5401 80.8213C53.1682 81.4048 53.0464 82.1102 53.2016 82.7822C53.3567 83.4543 53.7762 84.0381 54.3676 84.405L62.5157 89.4607C63.1071 89.8277 63.8221 89.9479 64.5033 89.7948C65.1846 89.6417 65.7763 89.2279 66.1482 88.6444L68.101 85.5812C68.3389 85.2079 68.4764 84.7809 68.5005 84.3405C68.5247 83.9002 68.4347 83.461 68.239 83.0645Z" fill="#575A89"/>
<path d="M70.1982 65.4463C70.7581 64.6396 70.5126 63.5187 70.9133 62.6245C71.5426 61.2203 73.398 60.9322 74.9514 60.8398C75.9815 60.7343 77.0212 60.7619 78.0441 60.9219C78.4959 61.0071 78.9214 61.1947 79.2871 61.4698C79.6528 61.745 79.9487 62.1002 80.1515 62.5075C80.3697 62.9668 80.3468 61.5436 80.2447 59.7149C80.1416 57.8488 79.4407 56.0632 78.2431 54.6153C77.0454 53.1674 75.4127 52.132 73.5803 51.6582C73.5585 51.6526 73.5369 51.6471 73.5155 51.6417C71.6387 51.167 69.7004 50.8044 67.7711 50.9814C65.8419 51.1584 63.9043 51.9319 62.667 53.4028C62.1014 54.075 61.6936 54.874 61.0656 55.4899C59.9622 56.5721 58.3568 56.9372 56.8787 57.4162C55.1854 57.9106 53.6176 58.7537 52.2789 59.8899C50.9356 61.0434 50.1072 62.6727 49.9734 64.4247C49.8927 66.4481 51.1466 68.5683 53.2399 69.0176C53.604 69.0892 53.9459 69.2446 54.2378 69.4711C56.2082 71.0551 53.878 72.6084 53.8514 74.3381C53.8293 75.7813 55.4344 76.7607 56.8938 76.8629C58.2592 76.9198 59.6021 76.5064 60.6924 75.6935C61.7827 74.8807 62.5525 73.719 62.8698 72.4076C63.1192 71.2287 62.9789 70.0084 62.865 68.8093C62.7346 67.4368 65.8012 64.2855 63.7697 66.6005C63.3736 67.0402 63.1003 67.5742 62.9768 68.1498C62.602 70.029 64.327 70.7053 65.399 71.7772C65.9871 72.383 66.3914 73.1393 66.566 73.9603C66.7405 74.7813 66.6784 75.6342 66.3866 76.4221C67.3116 75.6348 67.929 74.5536 68.1322 73.3651C68.3355 72.1766 68.1119 70.9554 67.4999 69.9122C67.1595 69.3688 66.7154 68.8925 66.3935 68.3382C65.8912 67.4732 65.7924 65.6155 67.2556 65.7014C68.3 65.7627 69.3648 66.6472 70.1982 65.4463Z" fill="#2F2E41"/>
<path d="M351.921 69.38C357.988 69.38 362.906 64.5279 362.906 58.5425C362.906 52.557 357.988 47.7049 351.921 47.7049C345.854 47.7049 340.936 52.557 340.936 58.5425C340.936 64.5279 345.854 69.38 351.921 69.38Z" fill="#FFB8B8"/>
<path opacity="0.2" d="M372.93 85.5153L369.152 125.268C369.152 125.268 369.004 127.117 368.728 129.582C360.709 131.473 338.566 132.918 338.566 132.918L337.489 125.268L362.044 118.68C362.044 118.68 359.029 102.105 362.475 95.3052C363.319 93.651 364.074 91.9539 364.736 90.221C365.34 88.6231 366.487 87.2809 367.981 86.4229C369.475 85.565 371.224 85.2442 372.93 85.5153Z" fill="black"/>
<path d="M339.859 124.205C339.859 124.205 322.842 120.805 324.996 128.03C327.15 135.256 341.366 130.58 341.366 130.58L339.859 124.205Z" fill="#FFB8B8"/>
<path d="M366.783 82.9801L373.46 84.0426C373.46 84.0426 378.199 96.7927 377.337 105.505C376.476 114.218 376.691 125.48 370.875 127.605C365.06 129.73 338.997 131.43 338.997 131.43L337.92 123.78L362.475 117.193C362.475 117.193 359.459 100.618 362.906 93.8177C366.352 87.0177 366.783 82.9801 366.783 82.9801Z" fill="#575A89"/>
<path d="M342.555 47.5351L340.443 46.7012C340.443 46.7012 344.858 41.9062 351 42.3231L349.273 40.4468C349.273 40.4468 353.495 38.779 357.334 43.157C359.352 45.4585 361.687 48.1637 363.143 51.2111H365.404L364.46 53.2612L367.763 55.3112L364.373 54.943C364.575 56.0656 364.606 57.2117 364.465 58.3434C364.32 59.4754 363.734 60.5074 362.832 61.2215C362.832 61.2215 360.213 55.8743 360.213 55.0404V57.1252C360.213 57.1252 358.102 55.2489 358.102 53.998L356.95 55.4573H349.273L350.424 53.581L346.01 54.2065L347.737 51.9132L340.902 61.383C340.902 61.383 336.988 50.6623 342.555 47.5351Z" fill="#2F2E41"/>
<path d="M210.383 173.119C232.593 173.119 250.598 155.356 250.598 133.444C250.598 111.532 232.593 93.7692 210.383 93.7692C188.173 93.7692 170.168 111.532 170.168 133.444C170.168 155.356 188.173 173.119 210.383 173.119Z" fill="#6415FF"/>
<path d="M230.118 141.329C230.118 143.764 221.057 149.87 210.569 149.87C200.081 149.87 192.137 143.764 192.137 141.329C192.137 138.895 200.081 142.156 210.569 142.156C221.057 142.156 230.118 138.895 230.118 141.329Z" fill="#D0CDE1"/>
<path d="M224.905 126.464C227.373 126.464 229.373 124.49 229.373 122.056C229.373 119.621 227.373 117.648 224.905 117.648C222.437 117.648 220.437 119.621 220.437 122.056C220.437 124.49 222.437 126.464 224.905 126.464Z" fill="#3F3D56"/>
<path d="M195.861 126.464C198.329 126.464 200.329 124.49 200.329 122.056C200.329 119.621 198.329 117.648 195.861 117.648C193.393 117.648 191.393 119.621 191.393 122.056C191.393 124.49 193.393 126.464 195.861 126.464Z" fill="#3F3D56"/>
<path d="M198.468 122.056C199.701 122.056 200.702 121.069 200.702 119.852C200.702 118.634 199.701 117.648 198.468 117.648C197.234 117.648 196.233 118.634 196.233 119.852C196.233 121.069 197.234 122.056 198.468 122.056Z" fill="#D0CDE1"/>
<path d="M221.181 122.056C222.415 122.056 223.416 121.069 223.416 119.852C223.416 118.634 222.415 117.648 221.181 117.648C219.948 117.648 218.947 118.634 218.947 119.852C218.947 121.069 219.948 122.056 221.181 122.056Z" fill="#D0CDE1"/>
<path d="M211.128 96.3407C219.971 96.3407 227.139 89.2684 227.139 80.5443C227.139 71.8202 219.971 64.7479 211.128 64.7479C202.285 64.7479 195.116 71.8202 195.116 80.5443C195.116 89.2684 202.285 96.3407 211.128 96.3407Z" fill="#6415FF"/>
<path d="M205.986 82.1795C211.64 85.5006 211.843 95.4529 211.843 95.4529C211.843 95.4529 202.878 100.021 197.224 96.6996C191.569 93.3786 191.366 83.4262 191.366 83.4262C191.366 83.4262 200.331 78.8584 205.986 82.1795Z" fill="#3F3D56"/>
<path d="M225.991 94.8987C220.881 98.9893 211.342 95.744 211.342 95.744C211.342 95.744 210.089 85.8667 215.199 81.7762C220.309 77.6856 229.848 80.9309 229.848 80.9309C229.848 80.9309 231.101 90.8082 225.991 94.8987Z" fill="#3F3D56"/>
</g>
<defs>
<clipPath id="clip0_123_545">
<rect width="423" height="254" fill="white"/>
</clipPath>
</defs>
</svg>
