<svg width="40" height="37" viewBox="0 0 40 37" fill="none" xmlns="http://www.w3.org/2000/svg">
<path d="M20.8276 31.9401C12.5713 31.9401 6.10854 25.9391 6.10854 18.5C6.10854 11.0612 12.5713 5.0602 20.8276 5.0602C25.2809 5.0602 28.5319 6.64024 30.9359 8.66432L34.8967 5.09582C31.547 2.20192 27.0741 0 20.8276 0C9.51739 0.000285001 0 8.30949 0 18.5C0 28.6911 9.51739 37 20.8276 37C26.9362 37 31.547 35.1891 35.1529 31.8158C38.8572 28.4779 40 23.7908 40 19.9914C40 18.8018 39.8425 17.5769 39.665 16.6714H20.8276V21.6071H34.2464C33.8522 24.6965 32.7686 26.8092 31.1725 28.247C29.2414 30.0049 26.1875 31.9401 20.8276 31.9401Z" fill="#3686F7"/>
</svg>
