<svg width="65" height="103" viewBox="0 0 65 103" fill="none" xmlns="http://www.w3.org/2000/svg">
<path d="M25.5374 0.767252C16.098 3.0151 8.8292 8.85951 4.03379 17.9858C1.86324 22.0319 0.904155 25.4037 0.197463 30.9334C-0.660663 37.9017 1.2575 45.8591 6.35578 56.4689C10.2931 64.6061 18.6219 78.1382 24.0736 85.1964C24.9317 86.2754 25.4869 87.1745 25.386 87.2645C25.3355 87.3094 23.3164 87.6241 20.9439 87.8938C16.098 88.4783 11.9084 90.0967 10.5959 91.8501C9.38446 93.5135 9.43494 96.7054 10.6969 98.234C13.4732 101.606 19.581 102.954 32.3015 102.999C48.5554 103.044 55.269 100.617 55.269 94.7723C55.269 91.2656 51.3317 88.8829 43.8105 87.8938C41.6399 87.6241 39.7722 87.3094 39.7217 87.2645C39.6208 87.2195 40.9837 85.0616 42.7504 82.499C54.4613 65.82 61.7301 51.8833 64.0521 41.5882C67.9894 24.3247 57.7424 6.20705 41.1351 1.21682C36.4407 -0.221796 30.3328 -0.401623 25.5374 0.767252ZM38.5607 4.58859C43.4066 5.71252 46.7382 7.5108 50.9783 11.3321C55.4709 15.2884 58.4491 19.9639 60.1149 25.4936C61.4778 29.9893 61.3768 38.5761 59.9129 43.3865C56.7328 53.8165 48.6059 68.2477 37.2483 83.7129C34.8254 87.0397 32.6548 89.782 32.5034 89.782C32.0491 89.782 25.7898 81.2852 21.0954 74.3168C13.0189 62.3133 7.4663 51.4787 5.04335 43.2516C-0.610185 23.8751 13.0189 4.04912 32.0491 3.9592C34.1187 3.91424 37.0464 4.22894 38.5607 4.58859ZM29.5757 92.5694C31.8976 95.5815 33.0586 95.6264 35.0778 92.7042C36.3902 90.861 37.2483 90.7711 43.7095 91.8501C55.168 93.7832 54.0575 97.2449 41.4885 98.7734C26.4965 100.527 8.42538 97.11 14.5332 93.6483C16.3504 92.5694 22.4583 91.3555 26.5975 91.1757C28.1623 91.1308 28.6166 91.3555 29.5757 92.5694Z" fill="#5B4CE2"/>
<path d="M23.4678 25.4036C14.8361 28.4158 14.8866 28.3708 14.8866 29.7195C14.8866 31.0682 15.3914 31.4279 19.3286 32.7316L22.4583 33.8106V38.1714C22.4583 43.0268 22.7611 43.5663 26.5975 45.3196C30.6862 47.2078 34.8759 46.8931 39.2674 44.3755L41.6399 43.0268V38.3512C41.6399 33.6308 41.8418 33.1362 43.7095 33.1362C44.4667 33.1362 44.2143 36.3731 43.3562 37.2273C42.6495 37.9017 42.6495 38.1714 43.2552 39.2953C43.8105 40.3294 44.2648 40.5541 45.6782 40.5541C46.9906 40.5541 47.5458 40.2844 48.0506 39.4752C48.4544 38.7559 48.5049 38.0815 48.1516 37.587C47.3944 36.2832 47.5963 31.9674 48.4544 31.338C49.363 30.6636 49.464 28.9103 48.6059 28.3258C47.5458 27.6065 32.8567 22.7961 31.7462 22.8411C31.2414 22.8411 27.5061 24.01 23.4678 25.4036ZM40.6304 29.5846C40.6304 29.7195 38.6617 30.4838 36.2388 31.293L31.8472 32.6867L27.6575 31.293C25.3355 30.4838 23.4678 29.7195 23.4678 29.5846C23.4678 29.4048 25.3355 28.6855 27.6575 27.9212L31.7967 26.5725L36.1883 27.9212C38.6617 28.6855 40.6304 29.4498 40.6304 29.5846ZM29.8281 36.1933C31.8472 36.8677 32.0996 36.8227 34.7749 35.9236L37.6017 34.9795V38.0365V41.1386L35.5826 41.8579C32.9072 42.802 30.7871 42.757 28.1623 41.6781L25.9917 40.8239V37.8118C25.9917 35.1593 26.0927 34.8896 26.9003 35.1593C27.3546 35.3391 28.7175 35.7887 29.8281 36.1933Z" fill="#5B4CE2"/>
</svg>
