<svg width="35" height="21" viewBox="0 0 35 21" fill="none" xmlns="http://www.w3.org/2000/svg">
<path d="M8.9076 15.904C11.9683 17.7508 14.5407 18.3421 17.4999 18.3421C20.0741 18.3421 23.434 17.5145 26.6662 15.7515C28.9972 14.4798 30.9239 12.6263 32.4411 10.1761C30.7961 7.97293 28.8922 6.16937 26.731 4.75865C23.7385 2.80389 20.4626 1.90751 17.4352 1.90751C14.3027 1.90751 10.6978 2.98479 7.62137 5.24734C5.40592 6.87541 3.72771 8.51427 2.58148 10.1585C4.44519 12.5736 6.55565 14.4865 8.9076 15.904ZM17.4999 20.2496C14.0455 20.2496 10.9638 19.5408 7.45338 17.4227C4.69369 15.7596 2.26649 13.5065 0.166531 10.6729C0.0639811 10.5342 0.00701356 10.3783 0.000607391 10.2188C-0.00579878 10.0592 0.0385514 9.90087 0.129782 9.7576C1.41425 7.74209 3.36896 5.77518 5.98691 3.84877C9.51658 1.25277 13.7077 0 17.4352 0C21.0103 0 24.8253 1.04623 28.2569 3.28583C30.7926 4.9409 32.9871 7.06845 34.8421 9.6604C35.0345 9.92769 35.052 10.253 34.8893 10.5311C33.1603 13.5011 30.8731 15.7717 28.0277 17.3242C24.3948 19.3046 20.5606 20.2496 17.4982 20.2496H17.4999ZM17.9094 15.3897C17.0591 15.3897 16.2172 15.2605 15.4316 15.0095C14.646 14.7584 13.9322 14.3905 13.331 13.9267C12.7297 13.4629 12.2528 12.9123 11.9274 12.3062C11.602 11.7002 11.4345 11.0507 11.4345 10.3948C11.4345 9.73884 11.602 9.08933 11.9274 8.48332C12.2528 7.87731 12.7297 7.32668 13.331 6.86286C13.9322 6.39904 14.646 6.03112 15.4316 5.7801C16.2172 5.52908 17.0591 5.39989 17.9094 5.39989C19.6266 5.39989 21.2736 5.92613 22.4878 6.86286C23.7021 7.79958 24.3843 9.07005 24.3843 10.3948C24.3843 11.7195 23.7021 12.99 22.4878 13.9267C21.2736 14.8634 19.6266 15.3897 17.9094 15.3897ZM17.9094 13.4997C18.438 13.4997 18.9614 13.4194 19.4497 13.2634C19.938 13.1073 20.3817 12.8786 20.7555 12.5903C21.1292 12.302 21.4257 11.9597 21.6279 11.583C21.8302 11.2063 21.9343 10.8025 21.9343 10.3948C21.9343 9.98704 21.8302 9.58328 21.6279 9.20658C21.4257 8.82987 21.1292 8.48758 20.7555 8.19926C20.3817 7.91094 19.938 7.68223 19.4497 7.5262C18.9614 7.37016 18.438 7.28985 17.9094 7.28985C16.8419 7.28985 15.8182 7.61697 15.0634 8.19926C14.3085 8.78155 13.8845 9.5713 13.8845 10.3948C13.8845 11.2183 14.3085 12.008 15.0634 12.5903C15.8182 13.1726 16.8419 13.4997 17.9094 13.4997Z" fill="black" fill-opacity="0.58"/>
</svg>
