<svg width="260" height="226" viewBox="0 0 260 226" fill="none" xmlns="http://www.w3.org/2000/svg">
<mask id="mask0_69_24" style="mask-type:alpha" maskUnits="userSpaceOnUse" x="0" y="0" width="260" height="226">
<path d="M121.977 11.4765C102.984 15.8906 88.3593 27.3672 78.7109 45.2883C74.3437 53.2336 72.414 59.8547 70.9921 70.7133C69.2656 84.3969 73.125 100.023 83.3828 120.857C91.3046 136.836 108.062 163.409 119.031 177.269C120.758 179.387 121.875 181.153 121.672 181.33C121.57 181.418 117.508 182.036 112.734 182.566C102.984 183.713 94.5546 186.891 91.914 190.334C89.4765 193.601 89.5781 199.869 92.1171 202.87C97.7031 209.491 109.992 212.14 135.586 212.228C168.289 212.316 181.797 207.549 181.797 196.073C181.797 189.187 173.875 184.508 158.742 182.566C154.375 182.036 150.617 181.418 150.516 181.33C150.312 181.241 153.055 177.004 156.609 171.972C180.172 139.22 194.797 111.852 199.469 91.6359C207.391 57.7359 186.773 22.1586 153.359 12.3594C143.914 9.53436 131.625 9.18124 121.977 11.4765ZM148.18 18.9805C157.93 21.1875 164.633 24.7187 173.164 32.2226C182.203 39.9914 188.195 49.1726 191.547 60.0312C194.289 68.8594 194.086 85.7211 191.141 95.1672C184.742 115.648 168.391 143.987 145.539 174.355C140.664 180.888 136.297 186.273 135.992 186.273C135.078 186.273 122.484 169.588 113.039 155.905C96.789 132.334 85.6171 111.058 80.7421 94.9023C69.3671 56.8531 96.789 17.9211 135.078 17.7445C139.242 17.6562 145.133 18.2742 148.18 18.9805ZM130.102 191.747C134.773 197.662 137.109 197.75 141.172 192.012C143.812 188.392 145.539 188.216 158.539 190.334C181.594 194.13 179.359 200.928 154.07 203.93C123.906 207.373 87.5468 200.663 99.8359 193.866C103.492 191.747 115.781 189.363 124.109 189.01C127.258 188.922 128.172 189.363 130.102 191.747Z" fill="#5B4CE2"/>
<path d="M117.813 59.8547C100.445 65.7695 100.547 65.6812 100.547 68.3297C100.547 70.9781 101.563 71.6844 109.484 74.2445L115.781 76.3633V84.9265C115.781 94.4609 116.391 95.5203 124.109 98.9633C132.336 102.671 140.766 102.053 149.602 97.1094L154.375 94.4609V85.2797C154.375 76.0101 154.781 75.039 158.539 75.039C160.063 75.039 159.555 81.3953 157.828 83.0726C156.406 84.3969 156.406 84.9265 157.625 87.1336C158.742 89.1641 159.656 89.6055 162.5 89.6055C165.141 89.6055 166.258 89.0758 167.273 87.4867C168.086 86.0742 168.188 84.75 167.477 83.7789C165.953 81.2187 166.359 72.7437 168.086 71.5078C169.914 70.1836 170.117 66.7406 168.391 65.593C166.258 64.1805 136.703 54.7344 134.469 54.8226C133.453 54.8226 125.938 57.118 117.813 59.8547ZM152.344 68.0648C152.344 68.3297 148.383 69.8305 143.508 71.4195L134.672 74.1562L126.242 71.4195C121.57 69.8305 117.813 68.3297 117.813 68.0648C117.813 67.7117 121.57 66.2992 126.242 64.7984L134.57 62.15L143.406 64.7984C148.383 66.2992 152.344 67.8 152.344 68.0648ZM130.609 81.0422C134.672 82.3664 135.18 82.2781 140.563 80.5125L146.25 78.6586V84.6617V90.7531L142.188 92.1656C136.805 94.0195 132.539 93.9312 127.258 91.8125L122.891 90.1351V84.2203C122.891 79.0117 123.094 78.482 124.719 79.0117C125.633 79.3648 128.375 80.2476 130.609 81.0422Z" fill="#5B4CE2"/>
</mask>
<g mask="url(#mask0_69_24)">
<rect x="-6" y="-43" width="294" height="307" fill="white"/>
</g>
</svg>
