<svg width="125" height="122" viewBox="0 0 125 122" fill="none" xmlns="http://www.w3.org/2000/svg">
<path d="M62.4997 122C97.0174 122 124.999 94.689 124.999 60.9998C124.999 27.3105 97.0174 0 62.4997 0C27.9821 0 0 27.3105 0 60.9998C0 94.689 27.9821 122 62.4997 122Z" fill="#E9573E"/>
<path fill-rule="evenodd" clip-rule="evenodd" d="M47.0368 76.3586L79.2111 76.6527V83.7931L93.3737 90.3846L61.6444 119.442L34.4175 89.1587L47.0368 83.9155V76.3586Z" fill="#F9DCA4"/>
<path fill-rule="evenodd" clip-rule="evenodd" d="M108.167 102.64C102.327 108.757 95.2579 113.633 87.4005 116.964C79.5431 120.295 71.0665 122.009 62.4999 122C59.9056 122 57.3137 121.844 54.739 121.532C46.8429 120.428 39.2031 117.994 32.1602 114.338C26.2162 111.11 20.8496 106.959 16.2702 102.05L18.8653 95.9299L41.7779 85.9528C43.5477 94.9073 50.3438 108.724 62.3604 116.555C67.9806 113.243 72.8582 108.857 76.701 103.661C80.5439 98.4649 83.2729 92.5656 84.7248 86.316L105.079 95.9951L108.167 102.64Z" fill="#677079"/>
<path opacity="0.11" fill-rule="evenodd" clip-rule="evenodd" d="M80.4834 84.3835C81.9559 85.0685 84.4741 86.2154 84.7188 86.3556C80.6128 98.9267 52.9227 103.53 44.7593 84.8632L80.4834 84.3835Z" fill="black"/>
<path fill-rule="evenodd" clip-rule="evenodd" d="M62.9631 16.6454C106.007 16.6454 89.2313 86.2644 62.9631 86.2644C38.1533 86.2644 19.9191 16.6454 62.9631 16.6454Z" fill="#FFE8BE"/>
<path fill-rule="evenodd" clip-rule="evenodd" d="M37.146 47.4676C30.9364 50.1129 36.2156 62.6426 40.1233 62.5853C38.5026 57.6835 37.5027 52.6065 37.146 47.4676Z" fill="#F9DCA4"/>
<path fill-rule="evenodd" clip-rule="evenodd" d="M89.2798 47.4676C95.4894 50.1109 90.2103 62.6426 86.3045 62.5853C87.9242 57.6833 88.9234 52.6064 89.2798 47.4676Z" fill="#F9DCA4"/>
<path fill-rule="evenodd" clip-rule="evenodd" d="M47.322 30.4741C46.1245 35.9385 46.5453 41.3712 41.2378 42.3741C39.9757 42.611 39.1403 44.2791 38.8673 45.7498C38.2517 48.958 37.994 52.2218 38.0987 55.4841C38.309 56.6074 37.2977 53.3284 37.2977 53.3284L37.1258 47.0626C37.1258 47.0626 37.0509 45.8623 37.0792 44.0323C37.1399 40.321 37.5728 34.3039 39.4983 32.464C42.3725 29.72 47.322 30.4741 47.322 30.4741Z" fill="#AD835F"/>
<path fill-rule="evenodd" clip-rule="evenodd" d="M79.0756 30.4741C80.273 35.9385 79.8543 41.3712 85.1597 42.3741C86.4219 42.611 87.2593 44.2791 87.5303 45.7498C88.1203 48.9711 88.332 52.2476 88.1614 55.5157C87.949 56.6409 88.9603 53.36 88.9603 53.36L89.2961 47.0863C89.2961 47.0863 89.3466 45.8623 89.3163 44.0323C89.2597 40.321 88.8268 34.3039 86.8992 32.464C84.025 29.72 79.0756 30.4741 79.0756 30.4741Z" fill="#AD835F"/>
<path fill-rule="evenodd" clip-rule="evenodd" d="M51.3026 91.7504C48.2483 88.8741 45.805 86.6434 43.5882 84.4107C40.7463 81.5462 39.7835 78.6423 39.2314 73.557C37.9781 64.7695 37.2736 55.9157 37.1217 47.0447C37.1217 47.0447 39.2132 59.5468 43.1128 65.7099C45.1153 68.8744 53.307 61.436 56.5736 60.3048C57.6843 59.8032 58.936 59.6828 60.1257 59.963C61.3153 60.2433 62.373 60.9077 63.127 61.8486C63.8672 60.9062 64.9154 60.2392 66.0975 59.9584C67.2796 59.6776 68.5246 59.7998 69.6258 60.3048C72.8944 61.436 80.9728 67.7906 83.0885 65.7099C88.1755 60.7036 89.2718 47.0625 89.2718 47.0625C89.0592 56.0325 88.2967 64.982 86.9882 73.863C86.254 79.2839 85.8818 81.3844 83.9825 83.5045C81.1948 86.5604 78.0979 89.3337 74.739 91.782C73.0643 93.077 70.1537 94.293 62.7386 94.2496C55.8495 94.2101 53.0238 93.3711 51.3026 91.7504Z" fill="#60350A"/>
<path fill-rule="evenodd" clip-rule="evenodd" d="M80.1051 31.5799C81.1778 31.3772 82.2884 31.5008 83.2868 31.934C84.2851 32.3672 85.1232 33.0891 85.6877 34.0021C88.8349 39.1605 89.0958 39.8257 89.0958 39.8257C89.0958 39.8257 88.7237 30.5988 88.4992 29.5011C88.7697 29.258 89.127 29.1276 89.4947 29.1379C89.8624 29.1483 90.2114 29.2984 90.4672 29.5564C90.6897 29.9947 89.5691 20.2781 83.7216 18.4146C81.5837 12.4883 74.106 8.09786 74.106 8.09786L73.7682 11.3907C73.0152 9.15526 71.6031 7.18642 69.7088 5.73083C67.8144 4.27525 65.522 3.39765 63.1189 3.20799C64.468 4.69055 64.1444 5.77434 64.1444 5.77434C62.0399 4.91383 59.7753 4.48899 57.4939 4.5267C57.7771 6.28168 55.6958 8.14919 55.6958 8.14919C55.6958 8.14919 54.4033 6.22641 49.286 5.56903C48.3859 8.75129 46.697 9.30009 45.0688 10.7826C43.7008 12.15 42.4424 13.6178 41.3046 15.1731C41.3046 15.1731 41.4725 12.0994 42.5971 11.2209C43.0198 10.9485 33.0583 14.7802 38.0421 29.0589C37.1492 29.0378 36.2752 29.3112 35.5613 29.8349C34.8474 30.3587 34.3354 31.1021 34.108 31.9451C36.9195 32.713 35.7565 36.8606 37.3301 39.5494C38.4365 36.4303 39.1687 30.354 46.0841 31.9451C51.0356 33.0842 55.7888 35.5261 61.4967 35.7216C69.5611 35.996 72.6234 31.8642 80.1051 31.5799Z" fill="#60350A"/>
<path fill-rule="evenodd" clip-rule="evenodd" d="M65.5643 76.1888C66.3524 76.3177 67.1596 76.2808 67.9319 76.0806C68.7042 75.8804 69.4237 75.5215 70.0424 75.028C71.4987 73.3895 72.686 71.062 70.4773 69.8104C68.3212 68.316 65.8438 67.3221 63.2342 66.9045C60.6089 67.3151 58.1151 68.3078 55.9445 69.8065C53.2342 71.3364 54.8928 73.3895 56.3511 75.028C56.9698 75.5215 57.6894 75.8804 58.4617 76.0806C59.234 76.2808 60.0412 76.3177 60.8293 76.1888C59.1889 70.6139 67.2067 70.6139 65.5643 76.1888Z" fill="#FFE8BE"/>
</svg>
