<svg width="170" height="194" viewBox="0 0 170 194" fill="none" xmlns="http://www.w3.org/2000/svg">
<g clip-path="url(#clip0_133_380)">
<path d="M115.637 120.186C208.33 184.053 178.204 207.852 57.8184 186.177C26.3633 180.513 0 156.632 0 120.186C0 83.7412 25.8862 54.1964 57.8184 54.1964C89.7506 54.1964 86.2222 99.9194 115.637 120.186Z" fill="#3F3D56"/>
<path opacity="0.1" d="M123.924 182.406C144.148 182.406 160.542 180.895 160.542 179.032C160.542 177.168 144.148 175.658 123.924 175.658C103.7 175.658 87.3057 177.168 87.3057 179.032C87.3057 180.895 103.7 182.406 123.924 182.406Z" fill="black"/>
<path opacity="0.1" d="M51.7046 71.1956C62.4237 71.1956 71.1133 69.6851 71.1133 67.8217C71.1133 65.9583 62.4237 64.4478 51.7046 64.4478C40.9855 64.4478 32.2959 65.9583 32.2959 67.8217C32.2959 69.6851 40.9855 71.1956 51.7046 71.1956Z" fill="black"/>
<path opacity="0.1" d="M50.6874 76.1273C42.3597 76.1256 34.2015 78.55 27.155 83.1203C20.1086 87.6907 14.4615 94.2206 10.866 101.956C14.999 97.2538 20.044 93.4971 25.675 90.9283C31.306 88.3596 37.3977 87.0359 43.5565 87.043C67.9308 87.043 87.6912 107.392 87.6912 132.492C87.7011 139.282 86.2269 145.988 83.3779 152.112C90.7564 143.759 94.838 132.868 94.8221 121.576C94.8221 96.4761 75.0617 76.1273 50.6874 76.1273Z" fill="black"/>
<path opacity="0.3" d="M87.6913 132.293C87.7012 139.084 86.227 145.79 83.378 151.914C79.245 156.616 74.2 160.372 68.569 162.941C62.938 165.51 56.8463 166.833 50.6875 166.826C26.3132 166.826 6.55278 146.478 6.55278 121.378C6.54283 114.587 8.01701 107.881 10.866 101.757C14.9991 97.0553 20.0441 93.2986 25.6751 90.7299C31.3061 88.1611 37.3978 86.8375 43.5565 86.8445C67.9309 86.8445 87.6913 107.193 87.6913 132.293Z" fill="#6415FF"/>
<path d="M50.6875 167.05C26.2319 167.05 6.33585 146.561 6.33585 121.378C6.31808 114.553 7.79994 107.812 10.6704 101.661C14.2836 93.8876 19.9585 87.3257 27.0396 82.7329C34.1206 78.1401 42.3189 75.7039 50.6875 75.7056C75.1431 75.7056 95.039 96.194 95.039 121.378C95.0394 127.376 93.8925 133.315 91.6637 138.856C89.435 144.398 86.1681 149.433 82.0496 153.674C77.9311 157.915 73.0417 161.279 67.6605 163.574C62.2794 165.869 56.5119 167.05 50.6875 167.05ZM50.6875 76.1522C33.8834 76.1522 18.3293 86.2407 11.0616 101.854C8.21917 107.945 6.75187 114.62 6.76956 121.378C6.76956 146.315 26.471 166.603 50.6875 166.603C56.455 166.604 62.166 165.434 67.4946 163.161C72.8231 160.889 77.6647 157.558 81.743 153.358C85.8212 149.158 89.0561 144.172 91.2631 138.685C93.47 133.198 94.6057 127.317 94.6053 121.378C94.6053 96.4402 74.9039 76.1522 50.6875 76.1522Z" fill="white"/>
<path d="M151.66 167.627C148.455 171.944 148.821 177.778 148.821 177.778C148.821 177.778 154.385 176.613 157.59 172.296C160.796 167.979 160.429 162.145 160.429 162.145C160.429 162.145 154.865 163.31 151.66 167.627Z" fill="#D0CDE1"/>
<path d="M153.761 168.596C153.139 173.993 148.928 177.915 148.928 177.915C148.928 177.915 145.725 173.087 146.347 167.69C146.97 162.294 151.18 158.372 151.18 158.372C151.18 158.372 154.383 163.2 153.761 168.596Z" fill="#6415FF"/>
<path d="M37.4788 42.1817C47.5367 42.1817 55.6902 33.7854 55.6902 23.428C55.6902 13.0706 47.5367 4.67432 37.4788 4.67432C27.4209 4.67432 19.2673 13.0706 19.2673 23.428C19.2673 33.7854 27.4209 42.1817 37.4788 42.1817Z" fill="#FF6584"/>
<path d="M76.9629 42.5486C76.9717 61.281 66.1605 67.8263 52.8216 67.8329C52.5118 67.8331 52.2034 67.8297 51.8966 67.8227C51.2784 67.8093 50.6666 67.7806 50.0613 67.7366C38.0221 66.8649 28.6647 59.9939 28.6565 42.5727C28.648 24.544 51.013 1.78086 52.6903 0.0977444C52.6918 0.0977444 52.6918 0.0977441 52.6933 0.0962144C52.757 0.0320676 52.7896 0 52.7896 0C52.7896 0 76.954 23.8176 76.9629 42.5486Z" fill="#6415FF"/>
<path d="M51.9411 64.968L60.7688 52.2533L51.9195 66.3633L51.8965 67.8227C51.2783 67.8092 50.6665 67.7805 50.0612 67.7366L51.0041 48.996L50.9966 48.851L51.0128 48.8235L51.1025 47.0526L42.2175 32.9165L51.1285 45.726L51.1509 46.1015L51.8632 31.9423L44.2559 17.3338L51.9554 29.4539L52.6902 0.0976952L52.6931 0L52.6932 0.0961652L52.5796 23.2466L60.1401 14.0651L52.5479 25.2403L52.3538 37.9185L59.4147 25.7483L52.3265 39.7825L52.2186 46.8322L62.4661 29.8914L52.1798 49.2915L51.9411 64.968Z" fill="#3F3D56"/>
<path d="M124.249 53.2812C121.934 49.2533 117.355 49.0656 117.355 49.0656C117.355 49.0656 112.892 48.4779 110.029 54.6124C107.361 60.3303 103.678 65.851 109.436 67.1895L110.476 63.8558L111.12 67.4377C111.94 67.4984 112.763 67.5129 113.584 67.481C119.751 67.276 125.623 67.541 125.434 65.2623C125.183 62.2331 126.477 57.1568 124.249 53.2812Z" fill="#2F2E41"/>
<path d="M114.037 91.0769L114.632 97.2086L128.427 95.6758L128.725 91.0769H114.037Z" fill="#A0616A"/>
<path d="M112.548 94.4493L112.151 98.0262C112.151 98.0262 107.586 104.567 107.983 115.809C108.38 127.05 101.731 177.025 106.494 177.434C111.258 177.843 119.793 178.456 120.19 176.923C120.587 175.39 121.381 117.239 121.381 117.239C121.381 117.239 123.465 176.995 127.038 177.2C130.61 177.404 142.619 177.813 142.619 176.28C142.619 174.747 132.099 106.304 132.099 106.304L130.412 100.581L128.725 93.5295C128.725 93.5295 118.205 95.3691 115.327 94.6537C112.449 93.9383 112.548 94.4493 112.548 94.4493Z" fill="#2F2E41"/>
<path d="M117.312 66.1405C120.82 66.1405 123.663 63.2122 123.663 59.5999C123.663 55.9876 120.82 53.0592 117.312 53.0592C113.804 53.0592 110.96 55.9876 110.96 59.5999C110.96 63.2122 113.804 66.1405 117.312 66.1405Z" fill="#A0616A"/>
<path d="M128.427 70.4328L127.221 72.2397L126.449 73.3955L125.152 75.3383L118.701 75.8493C118.701 75.8493 117.134 75.3281 115.326 74.5667C114.658 74.2846 113.956 73.9699 113.289 73.6357C110.702 72.3419 108.626 70.7629 110.96 69.7174C111.375 69.5341 111.773 69.3139 112.15 69.0593C112.493 68.8283 112.813 68.5618 113.104 68.2642C113.702 67.6472 114.144 66.8892 114.394 66.0561C114.643 65.223 114.69 64.3399 114.533 63.4834L120.785 62.5636C120.604 64.1967 122.181 65.978 123.948 67.4323C124.529 67.9116 125.131 68.3541 125.698 68.7445C127.183 69.7685 128.427 70.4328 128.427 70.4328Z" fill="#A0616A"/>
<path d="M119.892 72.3746C119.892 72.3746 113.789 71.3016 112.399 69.0532C112.399 69.0532 106.395 69.8197 106.891 73.09C107.387 76.3604 112.35 94.245 112.35 94.245C112.35 94.245 124.755 91.7922 129.32 93.6318L132.099 70.8417C132.099 70.8417 131.106 68.5933 129.221 69.2065C127.335 69.8197 126.591 69.2576 126.591 69.2576C126.591 69.2576 124.457 72.3746 119.892 72.3746Z" fill="#D0CDE1"/>
<path d="M125.45 108.246C125.45 108.246 129.717 113.151 127.335 113.969C124.953 114.787 122.075 110.699 122.075 110.699L125.45 108.246Z" fill="#A0616A"/>
<path d="M126.839 108.655C126.839 108.655 123.366 111.108 124.656 112.743C125.946 114.378 130.412 111.312 130.412 110.699C130.412 110.086 126.839 108.655 126.839 108.655Z" fill="#A0616A"/>
<path d="M118.304 95.3692L115.426 95.8801L113.541 81.4703C113.649 78.856 113.565 76.237 113.289 73.6358C113.079 71.8984 112.728 70.2285 112.15 69.0594C112.493 68.8283 112.813 68.5619 113.104 68.2643C113.795 69.3915 115.055 71.7789 115.326 74.5668C115.397 75.2649 115.397 75.9688 115.327 76.667C114.831 81.4703 114.93 82.3901 114.93 82.3901L118.304 95.3692Z" fill="#2F2E41"/>
<path d="M111.655 69.9219C111.655 69.9219 106.991 68.5933 106.594 71.4549C106.197 74.3164 106.693 81.6746 107.784 84.434C108.876 87.1933 112.647 96.1867 112.647 96.1867C112.647 96.1867 119.495 105.18 119.793 107.326C120.091 109.472 121.579 111.721 121.579 111.721L126.343 108.553L117.014 92.3032L112.945 81.0614C112.945 81.0614 114.632 70.8417 111.655 69.9219Z" fill="#D0CDE1"/>
<path d="M129.916 70.3307L132.099 70.8417C132.099 70.8417 134.084 79.6307 133.29 84.3318C132.496 89.0329 132.397 90.668 132.397 90.668L131.702 104.056C131.702 104.056 131.9 112.641 130.511 111.312C129.122 109.983 126.343 109.37 126.343 109.37C126.343 109.37 126.641 105.589 127.732 104.669C127.732 104.669 129.022 97.6175 128.228 94.5515C127.434 91.4856 129.916 70.3307 129.916 70.3307Z" fill="#D0CDE1"/>
<path d="M130.71 80.2439L128.179 95.318L126.641 94.6538L129.32 80.2439L126.449 73.3956L123.948 67.4324C124.529 67.9117 125.131 68.3542 125.698 68.7446L127.221 72.2398L130.71 80.2439Z" fill="#2F2E41"/>
<path d="M123.226 52.893L118.701 50.4524L112.453 51.4508L111.16 57.3305L114.378 57.2029L115.277 55.0428V57.1674L116.762 57.1085L117.624 53.6694L118.163 57.3305L123.441 57.2195L123.226 52.893Z" fill="#2F2E41"/>
<path d="M114.288 179.032C115.991 179.032 117.371 178.499 117.371 177.841C117.371 177.183 115.991 176.65 114.288 176.65C112.585 176.65 111.204 177.183 111.204 177.841C111.204 178.499 112.585 179.032 114.288 179.032Z" fill="#2F2E41"/>
<path d="M135.102 179.032C136.805 179.032 138.186 178.499 138.186 177.841C138.186 177.183 136.805 176.65 135.102 176.65C133.399 176.65 132.019 177.183 132.019 177.841C132.019 178.499 133.399 179.032 135.102 179.032Z" fill="#2F2E41"/>
<path d="M57.1518 144.885C53.9975 146.998 50.3625 148.229 46.6055 148.454C42.8486 148.679 39.0994 147.892 35.7282 146.17L36.2055 145.167C40.2691 147.223 44.875 147.851 49.318 146.954C53.7611 146.058 57.7965 143.687 60.8066 140.205C63.8167 136.722 65.6357 132.32 65.985 127.671C66.3344 123.023 65.1948 118.385 62.7409 114.467C60.287 110.548 56.6538 107.566 52.3976 105.977C48.1413 104.387 43.4965 104.278 39.1742 105.665C34.8518 107.053 31.09 109.861 28.4646 113.659C25.8392 117.457 24.4949 122.037 24.6374 126.697L23.5536 126.731C23.4335 122.81 24.3135 118.925 26.1058 115.464C27.8982 112.002 30.5403 109.085 33.7687 107.003C36.9972 104.92 40.6993 103.746 44.5059 103.596C48.3126 103.446 52.0909 104.327 55.4642 106.149C58.8375 107.972 61.688 110.673 63.7315 113.984C65.7751 117.295 66.9403 121.099 67.111 125.018C67.2817 128.937 66.452 132.833 64.7046 136.319C62.9572 139.805 60.353 142.758 57.1518 144.885Z" fill="white"/>
<path d="M47.3437 124.693C44.1374 125.424 39.8702 125.869 36.761 125.404L40.6642 128.465L29.7371 135.722L30.3248 136.661L41.2519 129.403L42.3503 134.328C43.2213 131.219 45.3754 127.4 47.3437 124.693Z" fill="white"/>
</g>
<defs>
<clipPath id="clip0_133_380">
<rect width="170" height="194" fill="white"/>
</clipPath>
</defs>
</svg>
