<svg width="35" height="29" viewBox="0 0 35 29" fill="none" xmlns="http://www.w3.org/2000/svg">
<path d="M29.5313 25.375C29.3876 25.3751 29.2453 25.3518 29.1126 25.3062C28.9799 25.2606 28.8595 25.1937 28.7581 25.1093L4.69563 5.17181C4.49917 5.00047 4.39126 4.77232 4.39491 4.53601C4.39856 4.29969 4.51348 4.07391 4.71517 3.90679C4.91686 3.73968 5.18936 3.64446 5.47457 3.64143C5.75978 3.63841 6.03513 3.72782 6.24191 3.8906L30.3044 23.8281C30.4573 23.9548 30.5614 24.1163 30.6035 24.292C30.6457 24.4678 30.624 24.6499 30.5413 24.8155C30.4585 24.981 30.3184 25.1225 30.1387 25.2221C29.9589 25.3217 29.7475 25.3749 29.5313 25.375ZM17.4768 21.75C14.6405 21.75 11.9055 21.0544 9.34748 19.6826C7.01848 18.4365 4.9219 16.6517 3.284 14.5283V14.5237C4.64709 12.9055 6.14006 11.5371 7.74377 10.4337C7.75828 10.4237 7.77011 10.4112 7.77852 10.3972C7.78694 10.3832 7.79174 10.3678 7.79264 10.3522C7.79354 10.3365 7.79051 10.3209 7.78375 10.3063C7.77698 10.2917 7.76663 10.2783 7.75334 10.2672L6.39162 9.14062C6.36742 9.1204 6.33493 9.10848 6.3006 9.10722C6.26627 9.10596 6.23263 9.11545 6.20637 9.13382C4.50285 10.3233 2.9217 11.7823 1.4841 13.4906C1.23677 13.7848 1.10055 14.1332 1.09276 14.4916C1.08497 14.85 1.20596 15.2023 1.44035 15.5036C3.24572 17.8446 5.56926 19.8162 8.15871 21.2045C11.0742 22.7695 14.2119 23.5625 17.4768 23.5625C19.2391 23.5579 20.9889 23.3173 22.6584 22.8499C22.6804 22.8437 22.7002 22.833 22.7158 22.8187C22.7314 22.8044 22.7424 22.7871 22.7477 22.7683C22.7529 22.7495 22.7523 22.73 22.7459 22.7114C22.7395 22.6929 22.7275 22.676 22.7111 22.6624L21.2359 21.4401C21.2019 21.4127 21.1599 21.393 21.114 21.3831C21.0681 21.3732 21.0199 21.3733 20.974 21.3835C19.8316 21.6272 18.6565 21.7504 17.4768 21.75ZM33.5535 13.5144C31.7447 11.1967 29.398 9.22784 26.7675 7.82032C23.8574 6.26157 20.6446 5.43745 17.4768 5.43745C15.7332 5.44001 14.0025 5.68568 12.3573 6.16415C12.3354 6.17047 12.3158 6.18131 12.3003 6.19565C12.2849 6.20999 12.2741 6.22735 12.2689 6.24611C12.2638 6.26486 12.2645 6.28439 12.271 6.30285C12.2775 6.32131 12.2896 6.3381 12.3061 6.35163L13.7792 7.57224C13.8135 7.60017 13.8561 7.62011 13.9027 7.63006C13.9492 7.64 13.9981 7.63959 14.0445 7.62888C15.1635 7.37806 16.3175 7.25065 17.4768 7.24995C20.2583 7.24995 22.9852 7.95399 25.5808 9.34565C27.9535 10.6144 30.0747 12.3975 31.7167 14.5C31.7179 14.5012 31.7186 14.5028 31.7186 14.5045C31.7186 14.5061 31.7179 14.5077 31.7167 14.509C30.5248 16.0638 29.0457 17.4538 27.3335 18.6285C27.3189 18.6385 27.3069 18.6509 27.2983 18.665C27.2898 18.6791 27.2849 18.6944 27.2839 18.7102C27.283 18.7259 27.286 18.7416 27.2927 18.7563C27.2995 18.771 27.3099 18.7844 27.3233 18.7956L28.6836 19.9222C28.7077 19.9423 28.74 19.9542 28.7742 19.9556C28.8083 19.957 28.8419 19.9476 28.8682 19.9295C30.6961 18.6543 32.2784 17.1553 33.5604 15.4844C33.787 15.1899 33.9068 14.8478 33.9056 14.4986C33.9044 14.1493 33.7822 13.8078 33.5535 13.5144Z" fill="black" fill-opacity="0.65"/>
<path d="M17.5 9.0625C17.0085 9.06228 16.5185 9.10788 16.0392 9.19844C16.015 9.2026 15.9926 9.21213 15.9744 9.226C15.9562 9.23987 15.9429 9.25757 15.9359 9.27722C15.9289 9.29686 15.9284 9.31771 15.9346 9.33755C15.9407 9.35739 15.9533 9.37548 15.9708 9.38988L23.6674 15.7654C23.6848 15.7799 23.7066 15.7903 23.7306 15.7954C23.7545 15.8005 23.7797 15.8001 23.8034 15.7943C23.8271 15.7885 23.8485 15.7775 23.8652 15.7624C23.882 15.7473 23.8935 15.7288 23.8985 15.7087C24.1176 14.9124 24.1174 14.0854 23.8979 13.2891C23.6783 12.4928 23.2451 11.7478 22.6304 11.1092C22.0157 10.4707 21.2353 9.95514 20.3471 9.60081C19.4589 9.24648 18.4858 9.06248 17.5 9.0625ZM11.3327 13.2346C11.3153 13.2201 11.2934 13.2097 11.2695 13.2046C11.2456 13.1995 11.2204 13.1999 11.1967 13.2057C11.173 13.2115 11.1516 13.2225 11.1349 13.2376C11.1181 13.2527 11.1066 13.2712 11.1016 13.2913C10.8537 14.1887 10.8848 15.1235 11.1921 16.0082C11.4993 16.8929 12.0726 17.6985 12.8583 18.3494C13.6439 19.0004 14.6162 19.4754 15.6839 19.73C16.7516 19.9846 17.8799 20.0104 18.9629 19.805C18.9871 19.8008 19.0095 19.7913 19.0277 19.7774C19.0459 19.7635 19.0592 19.7458 19.0662 19.7262C19.0732 19.7065 19.0737 19.6857 19.0676 19.6658C19.0614 19.646 19.0489 19.6279 19.0313 19.6135L11.3327 13.2346Z" fill="black" fill-opacity="0.65"/>
</svg>
