<svg width="20" height="176" viewBox="0 0 20 176" fill="none" xmlns="http://www.w3.org/2000/svg">
<path d="M10 2.02539C8.39303 2.02539 6.82214 2.54019 5.486 3.50468C4.14985 4.46917 3.10844 5.84003 2.49348 7.44392C1.87852 9.04781 1.71762 10.8127 2.03112 12.5154C2.34463 14.218 3.11846 15.7821 4.25476 17.0096C5.39106 18.2372 6.8388 19.0732 8.4149 19.4118C9.99099 19.7505 11.6247 19.5767 13.1093 18.9124C14.594 18.248 15.8629 17.123 16.7557 15.6795C17.6485 14.236 18.125 12.539 18.125 10.8029C18.1227 8.47575 17.266 6.24457 15.7427 4.59899C14.2195 2.95341 12.1542 2.02785 10 2.02539ZM12.9422 13.026C13.0003 13.0888 13.0463 13.1632 13.0777 13.2452C13.1092 13.3272 13.1254 13.415 13.1254 13.5037C13.1254 13.5925 13.1092 13.6803 13.0777 13.7623C13.0463 13.8442 13.0003 13.9187 12.9422 13.9814C12.8841 14.0442 12.8152 14.0939 12.7393 14.1279C12.6634 14.1618 12.5821 14.1793 12.5 14.1793C12.4179 14.1793 12.3366 14.1618 12.2607 14.1279C12.1848 14.0939 12.1159 14.0442 12.0578 13.9814L10 11.7575L7.94219 13.9814C7.88412 14.0442 7.81518 14.0939 7.73931 14.1279C7.66344 14.1618 7.58213 14.1793 7.5 14.1793C7.41788 14.1793 7.33656 14.1618 7.26069 14.1279C7.18482 14.0939 7.11588 14.0442 7.05782 13.9814C6.99975 13.9187 6.95368 13.8442 6.92226 13.7623C6.89083 13.6803 6.87466 13.5925 6.87466 13.5037C6.87466 13.415 6.89083 13.3272 6.92226 13.2452C6.95368 13.1632 6.99975 13.0888 7.05782 13.026L9.11641 10.8029L7.05782 8.57986C6.94054 8.45317 6.87466 8.28133 6.87466 8.10216C6.87466 7.92299 6.94054 7.75115 7.05782 7.62446C7.17509 7.49777 7.33415 7.42659 7.5 7.42659C7.66586 7.42659 7.82492 7.49777 7.94219 7.62446L10 9.84839L12.0578 7.62446C12.1159 7.56173 12.1848 7.51196 12.2607 7.47801C12.3366 7.44406 12.4179 7.42659 12.5 7.42659C12.5821 7.42659 12.6634 7.44406 12.7393 7.47801C12.8152 7.51196 12.8841 7.56173 12.9422 7.62446C13.0003 7.68719 13.0463 7.76167 13.0777 7.84363C13.1092 7.9256 13.1254 8.01344 13.1254 8.10216C13.1254 8.19088 13.1092 8.27873 13.0777 8.36069C13.0463 8.44266 13.0003 8.51713 12.9422 8.57986L10.8836 10.8029L12.9422 13.026Z" fill="#585353" fill-opacity="0.9"/>
<path d="M10 78.0254C8.39303 78.0254 6.82214 78.5402 5.486 79.5047C4.14985 80.4692 3.10844 81.84 2.49348 83.4439C1.87852 85.0478 1.71762 86.8127 2.03112 88.5154C2.34463 90.218 3.11846 91.7821 4.25476 93.0096C5.39106 94.2372 6.8388 95.0732 8.4149 95.4118C9.99099 95.7505 11.6247 95.5767 13.1093 94.9124C14.594 94.248 15.8629 93.123 16.7557 91.6795C17.6485 90.236 18.125 88.539 18.125 86.8029C18.1227 84.4757 17.266 82.2446 15.7427 80.599C14.2195 78.9534 12.1542 78.0278 10 78.0254ZM12.9422 89.026C13.0003 89.0888 13.0463 89.1632 13.0777 89.2452C13.1092 89.3272 13.1254 89.415 13.1254 89.5037C13.1254 89.5925 13.1092 89.6803 13.0777 89.7623C13.0463 89.8442 13.0003 89.9187 12.9422 89.9814C12.8841 90.0442 12.8152 90.0939 12.7393 90.1279C12.6634 90.1618 12.5821 90.1793 12.5 90.1793C12.4179 90.1793 12.3366 90.1618 12.2607 90.1279C12.1848 90.0939 12.1159 90.0442 12.0578 89.9814L10 87.7575L7.94219 89.9814C7.88412 90.0442 7.81518 90.0939 7.73931 90.1279C7.66344 90.1618 7.58213 90.1793 7.5 90.1793C7.41788 90.1793 7.33656 90.1618 7.26069 90.1279C7.18482 90.0939 7.11588 90.0442 7.05782 89.9814C6.99975 89.9187 6.95368 89.8442 6.92226 89.7623C6.89083 89.6803 6.87466 89.5925 6.87466 89.5037C6.87466 89.415 6.89083 89.3272 6.92226 89.2452C6.95368 89.1632 6.99975 89.0888 7.05782 89.026L9.11641 86.8029L7.05782 84.5799C6.94054 84.4532 6.87466 84.2813 6.87466 84.1022C6.87466 83.923 6.94054 83.7512 7.05782 83.6245C7.17509 83.4978 7.33415 83.4266 7.5 83.4266C7.66586 83.4266 7.82492 83.4978 7.94219 83.6245L10 85.8484L12.0578 83.6245C12.1159 83.5617 12.1848 83.512 12.2607 83.478C12.3366 83.4441 12.4179 83.4266 12.5 83.4266C12.5821 83.4266 12.6634 83.4441 12.7393 83.478C12.8152 83.512 12.8841 83.5617 12.9422 83.6245C13.0003 83.6872 13.0463 83.7617 13.0777 83.8436C13.1092 83.9256 13.1254 84.0134 13.1254 84.1022C13.1254 84.1909 13.1092 84.2787 13.0777 84.3607C13.0463 84.4427 13.0003 84.5171 12.9422 84.5799L10.8836 86.8029L12.9422 89.026Z" fill="#585353" fill-opacity="0.9"/>
<path d="M10 156.025C8.39303 156.025 6.82214 156.54 5.486 157.505C4.14985 158.469 3.10844 159.84 2.49348 161.444C1.87852 163.048 1.71762 164.813 2.03112 166.515C2.34463 168.218 3.11846 169.782 4.25476 171.01C5.39106 172.237 6.8388 173.073 8.4149 173.412C9.99099 173.751 11.6247 173.577 13.1093 172.912C14.594 172.248 15.8629 171.123 16.7557 169.679C17.6485 168.236 18.125 166.539 18.125 164.803C18.1227 162.476 17.266 160.245 15.7427 158.599C14.2195 156.953 12.1542 156.028 10 156.025ZM12.9422 167.026C13.0003 167.089 13.0463 167.163 13.0777 167.245C13.1092 167.327 13.1254 167.415 13.1254 167.504C13.1254 167.592 13.1092 167.68 13.0777 167.762C13.0463 167.844 13.0003 167.919 12.9422 167.981C12.8841 168.044 12.8152 168.094 12.7393 168.128C12.6634 168.162 12.5821 168.179 12.5 168.179C12.4179 168.179 12.3366 168.162 12.2607 168.128C12.1848 168.094 12.1159 168.044 12.0578 167.981L10 165.758L7.94219 167.981C7.88412 168.044 7.81518 168.094 7.73931 168.128C7.66344 168.162 7.58213 168.179 7.5 168.179C7.41788 168.179 7.33656 168.162 7.26069 168.128C7.18482 168.094 7.11588 168.044 7.05782 167.981C6.99975 167.919 6.95368 167.844 6.92226 167.762C6.89083 167.68 6.87466 167.592 6.87466 167.504C6.87466 167.415 6.89083 167.327 6.92226 167.245C6.95368 167.163 6.99975 167.089 7.05782 167.026L9.11641 164.803L7.05782 162.58C6.94054 162.453 6.87466 162.281 6.87466 162.102C6.87466 161.923 6.94054 161.751 7.05782 161.624C7.17509 161.498 7.33415 161.427 7.5 161.427C7.66586 161.427 7.82492 161.498 7.94219 161.624L10 163.848L12.0578 161.624C12.1159 161.562 12.1848 161.512 12.2607 161.478C12.3366 161.444 12.4179 161.427 12.5 161.427C12.5821 161.427 12.6634 161.444 12.7393 161.478C12.8152 161.512 12.8841 161.562 12.9422 161.624C13.0003 161.687 13.0463 161.762 13.0777 161.844C13.1092 161.926 13.1254 162.013 13.1254 162.102C13.1254 162.191 13.1092 162.279 13.0777 162.361C13.0463 162.443 13.0003 162.517 12.9422 162.58L10.8836 164.803L12.9422 167.026Z" fill="#585353" fill-opacity="0.9"/>
</svg>
