<svg width="24" height="23" viewBox="0 0 24 23" fill="none" xmlns="http://www.w3.org/2000/svg">
<path d="M22.5 9.75204H4.71L10.155 2.66703C10.4096 2.33518 10.5321 1.90735 10.4955 1.47766C10.459 1.04797 10.2663 0.65161 9.96 0.375785C9.65368 0.0999597 9.25875 -0.0327409 8.86211 0.00687619C8.46548 0.0464932 8.09961 0.255183 7.845 0.587035L0.345 10.337C0.294541 10.4146 0.249419 10.4961 0.21 10.5808C0.21 10.662 0.21 10.7108 0.105 10.792C0.0370105 10.9784 0.00141168 11.1767 0 11.377C0.00141168 11.5774 0.0370105 11.7757 0.105 11.962C0.105 12.0433 0.105 12.092 0.21 12.1733C0.249419 12.258 0.294541 12.3395 0.345 12.417L7.845 22.167C7.98603 22.3505 8.16264 22.498 8.36227 22.5991C8.5619 22.7002 8.77963 22.7524 9 22.752C9.35048 22.7528 9.69013 22.6205 9.96 22.3783C10.1119 22.2419 10.2374 22.0743 10.3295 21.8853C10.4215 21.6962 10.4782 21.4893 10.4963 21.2765C10.5144 21.0637 10.4936 20.849 10.435 20.6449C10.3765 20.4408 10.2813 20.2512 10.155 20.087L4.71 13.002H22.5C22.8978 13.002 23.2794 12.8308 23.5607 12.5261C23.842 12.2213 24 11.808 24 11.377C24 10.9461 23.842 10.5327 23.5607 10.228C23.2794 9.92324 22.8978 9.75204 22.5 9.75204Z" fill="black"/>
</svg>
