<svg width="42" height="40" viewBox="0 0 42 40" fill="none" xmlns="http://www.w3.org/2000/svg">
<path d="M29.9444 0C26.3204 0 23.1041 1.58596 20.925 4.3119C18.7459 1.58596 15.5296 0 11.9056 0C8.7492 0.00423409 5.72319 1.39627 3.49128 3.87077C1.25938 6.34528 0.00381898 9.70021 0 13.1997C0 27.6673 19.0868 39.227 19.8986 39.713C20.214 39.9014 20.5667 40 20.925 40C21.2833 40 21.6359 39.9014 21.9514 39.713C22.7631 39.227 41.85 27.6673 41.85 13.1997C41.8461 9.70021 40.5906 6.34528 38.3587 3.87077C36.1268 1.39627 33.1008 0.00423409 29.9444 0ZM28.954 28.4713C26.4417 30.8349 23.7561 32.9622 20.925 34.8312C18.0939 32.9622 15.4082 30.8349 12.8959 28.4713C8.98692 24.7534 4.32931 19.0835 4.32931 13.1997C4.32931 10.9719 5.12752 8.83539 6.54835 7.26013C7.96918 5.68486 9.89624 4.79988 11.9056 4.79988C15.1165 4.79988 17.8043 6.67984 18.9209 9.70776C19.0834 10.1492 19.3608 10.5269 19.7177 10.7928C20.0747 11.0587 20.495 11.2007 20.925 11.2007C21.355 11.2007 21.7753 11.0587 22.1322 10.7928C22.4891 10.5269 22.7666 10.1492 22.9291 9.70776C24.0457 6.67984 26.7335 4.79988 29.9444 4.79988C31.9537 4.79988 33.8808 5.68486 35.3016 7.26013C36.7224 8.83539 37.5206 10.9719 37.5206 13.1997C37.5206 19.0835 32.863 24.7534 28.954 28.4713Z" fill="black"/>
</svg>
