<svg width="234" height="52" viewBox="0 0 234 52" fill="none" xmlns="http://www.w3.org/2000/svg">
<path d="M53.5 26C53.5 40.0656 41.6535 51.5 27 51.5C12.3465 51.5 0.5 40.0656 0.5 26C0.5 11.9344 12.3465 0.5 27 0.5C41.6535 0.5 53.5 11.9344 53.5 26Z" fill="white" stroke="black"/>
<path d="M143.5 26C143.5 40.0656 131.653 51.5 117 51.5C102.347 51.5 90.5 40.0656 90.5 26C90.5 11.9344 102.347 0.5 117 0.5C131.653 0.5 143.5 11.9344 143.5 26Z" fill="white" stroke="black"/>
<path d="M233.5 26C233.5 40.0656 221.653 51.5 207 51.5C192.347 51.5 180.5 40.0656 180.5 26C180.5 11.9344 192.347 0.5 207 0.5C221.653 0.5 233.5 11.9344 233.5 26Z" fill="white" stroke="black"/>
<path d="M46 25.6069C46 15.883 37.7172 8 27.5 8C17.2828 8 9 15.883 9 25.6069C9 34.395 15.7652 41.6792 24.6094 43V30.6965H19.9121V25.6069H24.6094V21.7279C24.6094 17.3152 27.3714 14.8777 31.5972 14.8777C33.6212 14.8777 35.7383 15.2216 35.7383 15.2216V19.5546H33.4055C31.1074 19.5546 30.3906 20.9118 30.3906 22.3043V25.6069H35.5215L34.7013 30.6965H30.3906V43C39.2348 41.6792 46 34.3952 46 25.6069Z" fill="#1877F2"/>
<path d="M34.9516 30.6311L35.7808 25.6019H30.5936V22.3384C30.5936 20.9624 31.3182 19.6214 33.6416 19.6214H36V15.3398C36 15.3398 33.8597 15 31.8133 15C27.5412 15 24.7489 17.4085 24.7489 21.7689V25.6019H20V30.6311H24.7489V42.7886C25.7156 42.9296 26.6927 43.0002 27.6712 43C28.6498 43.0003 29.6269 42.9296 30.5936 42.7886V30.6311H34.9516Z" fill="white"/>
<path d="M214.83 36.7964C213.214 38.3795 211.451 38.1295 209.753 37.3796C207.956 36.6131 206.308 36.5797 204.412 37.3796C202.039 38.4128 200.786 38.1129 199.369 36.7964C191.325 28.4141 192.512 15.649 201.643 15.1824C203.869 15.2991 205.418 16.4156 206.72 16.5156C208.665 16.1156 210.528 14.9658 212.605 15.1158C215.094 15.3157 216.973 16.3156 218.209 18.1154C213.066 21.2317 214.286 28.0808 219 29.9972C218.06 32.4969 216.841 34.9799 214.813 36.813L214.83 36.7964ZM206.555 15.0824C206.308 11.3662 209.291 8.29996 212.72 8C213.198 12.2995 208.863 15.4991 206.555 15.0824Z" fill="black"/>
<path d="M131.718 23.2581H130.55V23.2H117.5V28.8H125.695C124.499 32.0599 121.287 34.4 117.5 34.4C112.695 34.4 108.8 30.6389 108.8 26C108.8 21.3611 112.695 17.6 117.5 17.6C119.718 17.6 121.735 18.4078 123.272 19.7273L127.373 15.7674C124.783 13.4371 121.319 12 117.5 12C109.492 12 103 18.2685 103 26C103 33.7315 109.492 40 117.5 40C125.508 40 132 33.7315 132 26C132 25.0613 131.9 24.145 131.718 23.2581Z" fill="#FFC107"/>
<path d="M105 19.5823L109.617 23C110.866 19.878 113.891 17.6738 117.432 17.6738C119.581 17.6738 121.537 18.4922 123.025 19.8291L127 15.817C124.49 13.456 121.133 12 117.432 12C112.034 12 107.354 15.0759 105 19.5823Z" fill="#FF3D00"/>
<path d="M117.549 40C121.19 40 124.499 38.6362 127 36.4184L122.637 32.8051C121.174 33.8939 119.387 34.4828 117.549 34.4814C113.883 34.4814 110.77 32.1932 109.597 29L105 32.4664C107.333 36.9344 112.071 40 117.549 40Z" fill="#4CAF50"/>
<path d="M131.728 23.0573H130.6V23H118V28.5236H125.912C125.36 30.0539 124.365 31.3912 123.051 32.3701L123.053 32.3687L127.386 35.9853C127.08 36.2601 132 32.6663 132 25.7618C132 24.8359 131.903 23.9321 131.728 23.0573Z" fill="#1976D2"/>
</svg>
