<svg width="26" height="27" viewBox="0 0 26 27" fill="none" xmlns="http://www.w3.org/2000/svg">
<path d="M24.375 9.91406C24.375 17.2969 13.8338 23.2727 13.3849 23.5195C13.2666 23.5856 13.1344 23.6202 13 23.6202C12.8656 23.6202 12.7334 23.5856 12.6151 23.5195C12.1662 23.2727 1.625 17.2969 1.625 9.91406C1.62688 8.18039 2.2909 6.51829 3.47139 5.29241C4.65188 4.06652 6.25242 3.37695 7.92188 3.375C10.0191 3.375 11.8554 4.31156 13 5.89465C14.1446 4.31156 15.9809 3.375 18.0781 3.375C19.7476 3.37695 21.3481 4.06652 22.5286 5.29241C23.7091 6.51829 24.3731 8.18039 24.375 9.91406Z" fill="#FF0000"/>
</svg>
