<svg width="26" height="28" viewBox="0 0 26 28" fill="none" xmlns="http://www.w3.org/2000/svg">
<path d="M18.0781 3.0625C16.0377 3.0625 14.2269 3.92984 13 5.42063C11.7731 3.92984 9.96227 3.0625 7.92188 3.0625C6.14476 3.06482 4.44104 3.8261 3.18442 5.17938C1.92781 6.53266 1.2209 8.36743 1.21875 10.2812C1.21875 18.1934 11.9651 24.5153 12.4221 24.7811C12.5997 24.8841 12.7983 24.938 13 24.938C13.2017 24.938 13.4003 24.8841 13.5779 24.7811C14.0349 24.5153 24.7812 18.1934 24.7812 10.2812C24.7791 8.36743 24.0722 6.53266 22.8156 5.17938C21.559 3.8261 19.8552 3.06482 18.0781 3.0625ZM17.5205 18.6331C16.1061 19.9258 14.594 21.0892 13 22.1112C11.406 21.0892 9.89394 19.9258 8.47945 18.6331C6.27859 16.5998 3.65625 13.4991 3.65625 10.2812C3.65625 9.06291 4.10566 7.89447 4.90562 7.03298C5.70558 6.17148 6.79056 5.6875 7.92188 5.6875C9.72969 5.6875 11.243 6.71563 11.8716 8.37156C11.9631 8.61296 12.1193 8.81954 12.3203 8.96495C12.5213 9.11037 12.7579 9.18803 13 9.18803C13.2421 9.18803 13.4787 9.11037 13.6797 8.96495C13.8807 8.81954 14.0369 8.61296 14.1284 8.37156C14.757 6.71563 16.2703 5.6875 18.0781 5.6875C19.2094 5.6875 20.2944 6.17148 21.0944 7.03298C21.8943 7.89447 22.3438 9.06291 22.3438 10.2812C22.3438 13.4991 19.7214 16.5998 17.5205 18.6331Z" fill="black"/>
</svg>
