<svg width="38" height="37" viewBox="0 0 38 37" fill="none" xmlns="http://www.w3.org/2000/svg">
<path d="M5.42857 0C2.43438 0 0 2.3543 0 5.25V31.5C0 34.3957 2.43438 36.75 5.42857 36.75H32.5714C35.5656 36.75 38 34.3957 38 31.5V5.25C38 2.3543 35.5656 0 32.5714 0H5.42857ZM30.629 6.89062L21.8246 16.6195L32.1812 29.8594H24.0723L17.7277 21.8285L10.4585 29.8594H6.42946L15.8446 19.4496L5.91205 6.89062H14.2246L19.967 14.2324L26.6 6.89062H30.629ZM27.4228 27.5297L13.0116 9.09727H10.6112L25.1835 27.5297H27.4143H27.4228Z" fill="black"/>
</svg>
