<svg width="27" height="35" viewBox="0 0 27 35" fill="none" xmlns="http://www.w3.org/2000/svg">
<path d="M21.136 0.957485H27V22.4239C27 31.3319 20.8618 35 13.6055 35C6.77142 35 2.65838 31.061 1.1184 27.8628L6.49714 25.9472C7.46725 27.9167 9.8087 30.248 13.6055 30.248C18.267 30.248 21.136 27.7723 21.136 23.1467V21.4122H20.9251C19.5328 22.8575 16.875 24.1585 13.5002 24.1585C6.45482 24.1585 0 18.9003 0 12.1245C0 5.31215 6.45482 0 13.5002 0C16.8541 0 19.5328 1.28293 20.9251 2.69233H21.136V0.957776V0.957485ZM21.5576 12.1245C21.5576 7.86003 18.2461 4.75204 14.0274 4.75204C9.76638 4.75204 6.18055 7.86003 6.18055 12.1245C6.18055 16.3344 9.76638 19.3881 14.0274 19.3881C18.2464 19.4064 21.5579 16.3344 21.5579 12.1245H21.5576Z" fill="#3686F7"/>
</svg>
