<svg width="24" height="24" viewBox="0 0 24 24" fill="none" xmlns="http://www.w3.org/2000/svg">
<path fill-rule="evenodd" clip-rule="evenodd" d="M13.3697 1.58103C13.2897 1.40757 13.1616 1.26066 13.0007 1.15769C12.8398 1.05472 12.6528 1 12.4617 1C12.2707 1 12.0837 1.05472 11.9227 1.15769C11.7618 1.26066 11.6338 1.40757 11.5537 1.58103L8.68374 7.80103L1.88274 8.60803C1.69299 8.63043 1.51363 8.70673 1.36589 8.82789C1.21815 8.94905 1.10821 9.10999 1.04908 9.29168C0.989958 9.47337 0.984122 9.6682 1.03227 9.8531C1.08041 10.038 1.18052 10.2052 1.32074 10.335L6.35074 14.985L5.01574 21.705C4.97866 21.8924 4.99599 22.0864 5.06569 22.2642C5.13538 22.442 5.25452 22.5961 5.40903 22.7083C5.56353 22.8205 5.74694 22.8862 5.93757 22.8975C6.12819 22.9087 6.31807 22.8652 6.48474 22.772L12.4617 19.426L18.4387 22.772C18.6055 22.8656 18.7956 22.9094 18.9866 22.8983C19.1775 22.8871 19.3612 22.8214 19.5159 22.709C19.6706 22.5966 19.7899 22.4422 19.8595 22.264C19.9291 22.0859 19.9462 21.8916 19.9087 21.704L18.5737 14.986L23.6027 10.335C23.743 10.2052 23.8431 10.038 23.8912 9.8531C23.9394 9.6682 23.9335 9.47337 23.8744 9.29168C23.8153 9.10999 23.7053 8.94905 23.5576 8.82789C23.4099 8.70673 23.2305 8.63043 23.0407 8.60803L16.2387 7.80003L13.3697 1.58103Z" fill="#FFC700"/>
</svg>
